<svg xmlns="http://www.w3.org/2000/svg" viewBox="0 0 841.9 595.3"><path d="M220.8 512.2h-10.9v-3.9h26.5v3.9h-10.9v32.3h-4.6v-32.3zm32.6-3.9h20.9v3.9H258v11.4h13.7v3.9H258v13.1h16.8v3.9h-21.4v-36.2zm37.4 18.1c0-2.9.4-5.5 1.2-7.8.8-2.3 1.9-4.3 3.4-5.9 1.4-1.6 3.1-2.9 5.1-3.7 2-.9 4.1-1.3 6.4-1.3 2.2 0 4.1.5 5.8 1.4 1.7.9 3 1.9 4.1 3.1l-2.6 2.9c-1-1-2-1.8-3.2-2.5-1.2-.6-2.5-.9-4.1-.9-1.7 0-3.3.3-4.7 1-1.4.7-2.6 1.7-3.6 2.9-1 1.3-1.8 2.8-2.3 4.6-.6 1.8-.8 3.8-.8 6.1s.3 4.3.8 6.2c.5 1.8 1.3 3.4 2.2 4.7 1 1.3 2.1 2.3 3.5 3 1.4.7 2.9 1 4.7 1 1.8 0 3.3-.3 4.6-1 1.3-.7 2.6-1.7 3.7-3l2.6 2.8c-1.4 1.7-3.1 2.9-4.9 3.9-1.8.9-3.9 1.4-6.2 1.4-2.3 0-4.4-.4-6.3-1.3-1.9-.8-3.6-2.1-5-3.7s-2.5-3.6-3.3-5.9c-.7-2.4-1.1-5-1.1-8zm44.1-18.1h4.6v15.2h16.8v-15.2h4.6v36.2h-4.6v-17.1h-16.8v17.1h-4.6v-36.2zm46.5 0h4.7l13.1 22.7 3.9 7.5h.2c-.1-1.8-.2-3.7-.4-5.7-.1-2-.2-3.9-.2-5.8v-18.7h4.4v36.2h-4.7l-13.1-22.8-3.9-7.5h-.2c.1 1.8.3 3.7.4 5.6.1 1.9.2 3.8.2 5.7v18.9h-4.4v-36.1zm59.6 36.9c-2.3 0-4.4-.4-6.3-1.3-1.9-.9-3.5-2.1-4.9-3.8-1.4-1.6-2.4-3.6-3.2-6-.8-2.3-1.1-5-1.1-7.9 0-2.9.4-5.5 1.1-7.8.8-2.3 1.8-4.3 3.2-5.9 1.4-1.6 3-2.8 4.9-3.7 1.9-.8 4-1.3 6.3-1.3s4.4.4 6.3 1.3c1.9.9 3.5 2.1 4.9 3.7 1.4 1.6 2.4 3.6 3.2 5.9.8 2.3 1.1 4.9 1.1 7.8 0 2.9-.4 5.5-1.1 7.9-.8 2.3-1.8 4.3-3.2 6-1.4 1.6-3 2.9-4.9 3.8-2 .9-4.1 1.3-6.3 1.3zm0-4c1.6 0 3.1-.3 4.4-1 1.3-.7 2.4-1.7 3.4-3 .9-1.3 1.7-2.9 2.2-4.7.5-1.8.8-3.9.8-6.2 0-2.2-.3-4.3-.8-6.1-.5-1.8-1.2-3.3-2.2-4.6-.9-1.2-2.1-2.2-3.4-2.9-1.3-.7-2.8-1-4.4-1-1.6 0-3.1.3-4.4 1-1.3.7-2.4 1.6-3.4 2.9-.9 1.3-1.7 2.8-2.2 4.6-.5 1.8-.8 3.8-.8 6.1s.3 4.3.8 6.2c.5 1.8 1.2 3.4 2.2 4.7.9 1.3 2.1 2.3 3.4 3 1.3.6 2.7 1 4.4 1zm33.7-32.9h4.6v32.3h15.8v3.9h-20.4v-36.2zm49.3 36.9c-2.3 0-4.4-.4-6.3-1.3-1.9-.9-3.5-2.1-4.9-3.8-1.4-1.6-2.4-3.6-3.2-6-.8-2.3-1.1-5-1.1-7.9 0-2.9.4-5.5 1.1-7.8.8-2.3 1.8-4.3 3.2-5.9 1.4-1.6 3-2.8 4.9-3.7 1.9-.8 4-1.3 6.3-1.3s4.4.4 6.3 1.3c1.9.9 3.5 2.1 4.9 3.7 1.4 1.6 2.4 3.6 3.2 5.9.8 2.3 1.1 4.9 1.1 7.8 0 2.9-.4 5.5-1.1 7.9-.8 2.3-1.8 4.3-3.2 6-1.4 1.6-3 2.9-4.9 3.8-2 .9-4 1.3-6.3 1.3zm0-4c1.6 0 3.1-.3 4.4-1 1.3-.7 2.4-1.7 3.4-3 .9-1.3 1.7-2.9 2.2-4.7.5-1.8.8-3.9.8-6.2 0-2.2-.3-4.3-.8-6.1-.5-1.8-1.2-3.3-2.2-4.6-.9-1.2-2.1-2.2-3.4-2.9-1.3-.7-2.8-1-4.4-1-1.6 0-3.1.3-4.4 1-1.3.7-2.4 1.6-3.4 2.9-.9 1.3-1.7 2.8-2.2 4.6-.5 1.8-.8 3.8-.8 6.1s.3 4.3.8 6.2c.5 1.8 1.2 3.4 2.2 4.7.9 1.3 2.1 2.3 3.4 3 1.3.6 2.8 1 4.4 1zm31.7-14.8c0-2.9.4-5.5 1.2-7.8.8-2.3 2-4.3 3.5-5.9 1.5-1.6 3.2-2.9 5.3-3.7 2-.9 4.2-1.3 6.7-1.3s4.6.5 6.3 1.4c1.7.9 3 2 4.1 3.1l-2.6 2.9c-.9-1-2-1.8-3.2-2.4-1.2-.6-2.7-1-4.6-1-1.8 0-3.5.3-5 1s-2.7 1.7-3.8 2.9c-1 1.3-1.8 2.8-2.4 4.6-.6 1.8-.9 3.8-.9 6.1s.3 4.3.8 6.2c.5 1.8 1.3 3.4 2.3 4.7 1 1.3 2.3 2.3 3.8 3 1.5.7 3.2 1 5.2 1 1.3 0 2.5-.2 3.7-.6 1.2-.4 2.1-.9 2.8-1.6v-9.4h-7.7v-3.8h11.9V541c-1.2 1.2-2.7 2.2-4.7 3-1.9.8-4.1 1.2-6.5 1.2-2.4 0-4.6-.4-6.6-1.3-2-.8-3.7-2.1-5.1-3.7s-2.6-3.6-3.4-5.9c-.7-2.3-1.1-4.9-1.1-7.9zm52.4 4.1l-10.9-22.2h4.9l4.7 10.2c.6 1.3 1.2 2.6 1.7 3.9.6 1.3 1.1 2.6 1.8 4h.2c.6-1.4 1.3-2.7 1.9-4l1.8-3.9 4.6-10.2h4.8l-10.9 22.2v14h-4.6v-14z" fill="#00A3E0"/><path d="M623.1 394.8c-25.7 0-45.9 19.8-45.9 45.7 0 25.9 20.2 45.7 45.9 45.7s45.9-19.8 45.9-45.7c-.1-25.9-20.3-45.7-45.9-45.7m0 15.7c16.3 0 29.4 13.6 29.4 29.9 0 16.1-13 29.9-29.4 29.9-16.3 0-29.3-13.8-29.3-29.9-.1-16.3 12.9-29.9 29.3-29.9m-212.3 59.8c-16.3 0-29.3-13.8-29.3-29.9 0-16.3 13-29.9 29.3-29.9s29.4 13.6 29.4 29.9c0 16.2-13 29.9-29.4 29.9m29.1-73v9.8h-.6c-6.7-7.5-17.6-12.4-28.9-12.4-25.7 0-45.9 19.8-45.9 45.7 0 25.9 20.2 45.7 45.9 45.7 11.3 0 22.2-5 28.9-12.4h.6v9.6h16.5v-86h-16.5zm77 73c-16.3 0-29.4-13.8-29.4-29.9 0-16.3 13-29.9 29.4-29.9 16.3 0 29.4 13.6 29.4 29.9 0 16.2-13 29.9-29.4 29.9M546 356.1v51h-.6c-6.7-7.5-17.6-12.4-28.9-12.4-25.7 0-45.8 19.8-45.8 45.7 0 25.9 20.2 45.7 45.8 45.7 11.3 0 22.2-5 28.9-12.4h.6v9.6h16.5V356.1H546zM349.5 460.9c-5.4 5.8-12.9 9.5-21.4 9.5-16.3 0-29.3-13.8-29.3-29.9 0-16.3 13-29.9 29.3-29.9 8.5 0 16 3.7 21.4 9.5l8-15c-7.9-6.5-18.1-10.3-29.3-10.3-25.7 0-45.9 19.8-45.9 45.7 0 25.9 20.2 45.7 45.9 45.7 11.3 0 21.5-3.8 29.3-10.3l-8-15zm-125.7-66.1c-25.7 0-45.8 19.8-45.8 45.7 0 25.9 20.2 45.7 45.8 45.7 25.7 0 45.9-19.8 45.9-45.7 0-25.9-20.2-45.7-45.9-45.7m0 15.7c16.4 0 29.4 13.6 29.4 29.9 0 16.1-13 29.9-29.4 29.9-16.3 0-29.3-13.8-29.3-29.9 0-16.3 13-29.9 29.3-29.9" fill="#54585A"/><path fill="#A8AD00" d="M544.6 260.9l-.2.2c-.1 0-.1.1-.2.2-.2.1-.4.3-.7.5l-.1.1c-.3.2-.7.5-1.1.8h-.1c-.4.3-.9.6-1.4 1-.1.1-.2.1-.3.2-.4.3-.9.6-1.4.9-.3.2-.5.3-.8.5-.3.2-.7.4-1.1.7-.5.3-1.1.7-1.7 1-.1.1-.3.1-.4.2-7.8 4.4-20.1 9.6-35.5 10H375.7h.1-.1s2.7 4.9 14.1 24.2c14.2 24.1 37 31.4 37 31.4h-19H483c12.5 0 24-6.7 30.2-17.5l22.1-38.3 9.3-16.1c.1-.1 0-.1 0 0z"/><path fill="#00A3E0" d="M573.1 177l-31.5-54.6v.1c.1.3 5.3 22.3-8.4 47.9l-14.3 24.1-47.9 82.7h28.8c15.4-.4 27.7-5.5 35.5-10 .1-.1.3-.1.4-.2.6-.3 1.1-.7 1.7-1 .4-.2.7-.4 1.1-.7.3-.2.5-.3.8-.5.5-.3 1-.6 1.4-.9.1-.1.2-.1.3-.2.5-.4 1-.7 1.4-1h.1c.4-.3.8-.6 1.1-.8l.1-.1c.3-.2.5-.4.7-.5l.2-.2.2-.2.1-.1 6.4-10.7 22-38.2c6-10.8 6-24.1-.2-34.9zm-225.3-65.2c-26.7 0-44.4 15.4-45.8 16.7l-6.1 10.4-22 38.2c-6.2 10.8-6.2 24.1 0 34.9l22.1 38.3 9.4 16.3s-1.4-6.6-.7-16.5c.6-8.7 3-20 9.4-31.5l61.6-106.7v-.1h-27.9z"/><path fill="#54585A" d="M389.8 301.4c-11.4-19.3-14.1-24.2-14.1-24.2L328 194.5l-14 24.1c-6.5 11.5-8.8 22.7-9.4 31.5-.7 9.9.7 16.5.7 16.5l-9.4-16.3 15.6 26.9 22 38.2c6.2 10.8 17.8 17.5 30.2 17.5h63c0-.1-22.7-7.4-36.9-31.5zm151.8-178.9l-6.2-10.7-22-38.2c-6.2-10.8-17.8-17.5-30.2-17.5l-62.6.1h-.2c1 .3 22.9 7.7 36.8 31.4 11.4 19.4 14.1 24.3 14.1 24.3l47.7 82.6 14.3-24.1c13.6-25.6 8.4-47.6 8.3-47.9z"/><path fill="#A8AD00" d="M457.1 87.5c-13.9-23.6-35.8-31-36.8-31.4H364c-12.5 0-24 6.7-30.2 17.5l-22.1 38.3-9.7 16.5c1.4-1.3 19.1-16.7 45.8-16.7l27.9.1v.1h.2l.1-.1h95.3c-.1 0-2.8-4.9-14.2-24.3z"/><path fill="#54585A" d="M677.9 414c-1.2 0-2.4-.2-3.4-.7-1.1-.5-2-1.1-2.9-1.9-.8-.8-1.5-1.8-1.9-3-.5-1.2-.7-2.5-.7-3.9s.2-2.8.7-3.9c.5-1.2 1.1-2.2 1.9-3 .8-.8 1.8-1.5 2.9-1.9 1.1-.5 2.2-.7 3.4-.7 1.2 0 2.4.2 3.5.7 1.1.5 2 1.1 2.9 1.9.8.8 1.4 1.8 1.9 3s.7 2.5.7 3.9-.2 2.7-.7 3.9c-.5 1.2-1.1 2.2-1.9 3-.8.8-1.8 1.5-2.9 1.9-1.2.4-2.3.7-3.5.7zm0-1.5c1 0 2-.2 2.9-.6.9-.4 1.7-1 2.4-1.7s1.2-1.5 1.6-2.5c.4-1 .6-2.1.6-3.2 0-1.2-.2-2.3-.6-3.3-.4-1-.9-1.9-1.6-2.6-.7-.7-1.4-1.3-2.4-1.7-.9-.4-1.9-.6-2.9-.6-1.1 0-2 .2-2.9.6-.9.4-1.7 1-2.3 1.7-.7.7-1.2 1.6-1.6 2.6-.4 1-.6 2.1-.6 3.3 0 1.2.2 2.3.6 3.2.4 1 .9 1.8 1.6 2.5.7.7 1.4 1.3 2.3 1.7.8.4 1.8.6 2.9.6zm-3.4-13.3h3.4c.5 0 1 0 1.4.1.4.1.8.3 1.2.5.4.2.6.6.9 1 .2.4.3.9.3 1.5s-.2 1.2-.6 1.7c-.4.5-.8.9-1.4 1l2.4 4.2h-1.8l-1.9-3.7h-2.3v3.7h-1.6v-10zm3 5.1c.8 0 1.4-.1 1.8-.4.5-.3.7-.7.7-1.4 0-.6-.2-1-.5-1.4-.3-.3-1-.5-1.8-.5h-1.6v3.7h1.4z"/></svg>