<svg xmlns="http://www.w3.org/2000/svg" width="400" height="165.38"><path d="M64.167 79.911c0 32.518.004 32.913.326 33.085.214.115 2.188.16 5.709.131l5.381-.044.042-28.208.043-28.208 4.791.005c3.949.004 4.848.048 5.115.25.235.178.789.245 2.041.245 1.035 0 1.718.066 1.718.166 0 .092.413.167.917.167.704 0 .917.058.917.25 0 .156.157.25.416.25.23 0 .417.061.417.135 0 .142 1.157.698 1.455.698.097 0 .219.113.272.25.053.138.254.25.446.25.374 0 .827.359.827.655 0 .098.112.179.25.179a.25.25 0 01.25.25c0 .137.08.25.179.25.295 0 .654.453.654.826 0 .193.113.394.25.447.138.052.25.275.25.494 0 .244.098.399.25.399.181 0 .25.186.25.667 0 .367.075.667.167.667.094 0 .167.472.167 1.083 0 .852.053 1.083.25 1.083.201 0 .25.26.25 1.334S98.118 69 97.917 69c-.199 0-.25.241-.25 1.167 0 .666-.072 1.166-.167 1.166-.092 0-.167.263-.167.584 0 .407-.075.583-.25.583-.166 0-.25.167-.25.5 0 .275-.085.5-.19.5-.28 0-.632.528-.638.958-.003.207-.09.375-.194.375-.103 0-.436.263-.738.584-.303.32-.708.583-.9.583-.193 0-.393.112-.446.25-.053.137-.24.25-.417.25-.176 0-.364.112-.416.25-.053.137-.276.25-.495.25-.22 0-.399.075-.399.167 0 .091-.265.166-.589.166-.369 0-.624.093-.684.25-.067.175-.339.25-.903.25-.54 0-.853.082-.945.247-.115.204-.774.254-3.8.292l-3.662.045v9.5l4.791.044C90.397 88 91 87.973 91 87.753c0-.205.253-.253 1.333-.253 1.074 0 1.334-.049 1.334-.25 0-.192.213-.25.916-.25.504 0 .917-.075.917-.167 0-.091.34-.166.755-.166.518 0 .786-.079.851-.25.055-.143.304-.25.578-.25.266 0 .483-.075.483-.167 0-.092.173-.167.384-.167.212 0 .531-.11.709-.244.178-.135.492-.247.698-.25.22-.003.375-.109.375-.256 0-.155.158-.25.417-.25.229 0 .417-.075.417-.166 0-.092.112-.167.25-.167.137 0 .25-.113.25-.25 0-.156.157-.25.416-.25.26 0 .417-.094.417-.25 0-.138.085-.25.189-.25s.363-.187.576-.417c.212-.229.471-.416.574-.416.291 0 1.828-1.597 1.828-1.899 0-.147.075-.268.166-.268.092 0 .167-.113.167-.25a.25.25 0 01.25-.25c.138 0 .25-.104.25-.232s.112-.276.25-.328c.138-.053.25-.249.25-.435s.075-.338.167-.338c.091 0 .166-.188.166-.417 0-.259.095-.417.25-.417.152 0 .25-.155.25-.396 0-.218.113-.49.25-.604.138-.114.25-.423.25-.687 0-.264.075-.479.167-.479.092 0 .167-.292.167-.649 0-.423.087-.682.25-.745.191-.073.25-.387.25-1.333s.059-1.26.25-1.334c.212-.081.25-.704.25-4.184 0-3.523-.035-4.089-.25-4.089-.197 0-.25-.231-.25-1.083s-.054-1.083-.25-1.083c-.192 0-.25-.213-.25-.917 0-.504-.075-.917-.167-.917-.092 0-.167-.187-.167-.416 0-.26-.094-.417-.25-.417-.166 0-.25-.167-.25-.5 0-.333-.083-.5-.25-.5-.155 0-.25-.157-.25-.417 0-.229-.075-.416-.166-.416-.092 0-.167-.188-.167-.417 0-.259-.094-.417-.25-.417a.25.25 0 01-.25-.25.25.25 0 00-.25-.25c-.142 0-.25-.149-.25-.346 0-.359-.84-1.32-1.154-1.32a.18.18 0 01-.179-.18c0-.314-.961-1.154-1.321-1.154-.196 0-.346-.108-.346-.25a.25.25 0 00-.25-.25.25.25 0 01-.25-.25.25.25 0 00-.25-.25c-.138 0-.25-.075-.25-.166 0-.092-.187-.167-.417-.167-.259 0-.416-.094-.416-.25 0-.153-.156-.25-.399-.25-.22 0-.442-.113-.495-.25-.053-.138-.248-.25-.434-.25-.187 0-.339-.075-.339-.167 0-.091-.225-.166-.5-.166-.333 0-.5-.084-.5-.25 0-.181-.185-.25-.667-.25-.481 0-.666-.07-.666-.25 0-.156-.158-.25-.417-.25-.229 0-.417-.075-.417-.167 0-.092-.367-.167-.815-.167-.571 0-.844-.075-.912-.25-.071-.187-.37-.25-1.184-.25-.615 0-1.089-.072-1.089-.166 0-.098-.555-.167-1.333-.167-1.074 0-1.333-.049-1.333-.25 0-.22-1.528-.25-12.75-.25h-12.75v32.911m53-27.661v5.25h11V47h-11v5.25m207.166 27.633c0 25.354.046 32.929.2 33.084.148.147 1.6.2 5.5.2h5.3V47h-11v32.883m-74.5-26.466c0 .203-.277.25-1.5.25-.889 0-1.5.068-1.5.166 0 .101-.696.167-1.755.167-1.406 0-1.774.05-1.851.25-.075.196-.414.25-1.578.25h-1.482v24.839c0 21.925.029 24.849.25 24.934.175.067.25.34.25.911 0 .449.075.816.166.816.092 0 .167.188.167.417 0 .259.094.416.25.416.167 0 .25.167.25.5 0 .334.083.5.25.5.156 0 .25.158.25.417 0 .229.075.417.167.417.091 0 .166.112.166.25 0 .137.081.25.179.25.231 0 .655.424.655.654 0 .099.078.179.174.179.096 0 .349.188.561.417.212.229.546.416.742.416.205 0 .356.106.356.25 0 .152.155.25.396.25.218 0 .49.113.604.25.114.138.423.25.687.25.264 0 .48.075.48.167 0 .092.412.167.916.167.704 0 .917.058.917.25 0 .21.38.25 2.417.25 2.045 0 2.416.038 2.416.252 0 .221.824.246 6.792.208l6.792-.044.044-4.375.045-4.375h-6.42c-5.595 0-6.419-.032-6.419-.25 0-.189-.204-.25-.834-.25-.458 0-.833-.07-.833-.157 0-.086-.225-.29-.5-.453-.275-.162-.5-.391-.5-.509s-.067-.214-.149-.214c-.081 0-.195-.187-.253-.417-.057-.229-.178-.416-.268-.416-.105 0-.163-5.161-.163-14.584V72.5H267.5v-8.833h-16.333v-10.5h-.667c-.481 0-.667.069-.667.25m43.227 9.666c-.077.202-.46.25-1.994.25-1.155 0-1.899.066-1.899.167 0 .092-.378.167-.839.167-.592 0-.867.073-.934.25-.068.175-.341.25-.912.25-.614 0-.815.062-.815.25 0 .166-.167.25-.5.25-.275 0-.5.075-.5.166 0 .092-.188.167-.417.167-.259 0-.417.094-.417.25s-.157.25-.416.25c-.26 0-.417.094-.417.25 0 .167-.167.25-.5.25-.275 0-.5.075-.5.167 0 .091-.152.166-.339.166-.186 0-.381.113-.434.25-.053.138-.2.25-.328.25s-.232.081-.232.179c0 .267-.44.655-.744.655a.42.42 0 00-.363.25c-.052.137-.2.25-.328.25s-.232.112-.232.25c0 .137-.08.25-.179.25-.23 0-.654.424-.654.654 0 .099-.113.179-.25.179-.156 0-.25.157-.25.417 0 .259-.095.416-.25.416-.138 0-.25.095-.25.211 0 .116-.188.351-.417.523-.238.179-.417.481-.417.706 0 .217-.085.394-.19.394-.28 0-.632.528-.638.958-.003.22-.108.375-.255.375-.142 0-.25.149-.25.345 0 .19-.113.458-.25.595-.138.138-.25.47-.25.739 0 .268-.075.488-.167.488-.091 0-.166.3-.166.666 0 .482-.07.667-.25.667s-.25.183-.25.649c0 .423-.087.682-.25.745-.192.073-.25.389-.25 1.351 0 .725-.071 1.255-.167 1.255-.108 0-.167 2.444-.167 7 0 3.983.064 7 .149 7 .081 0 .177.576.213 1.279.041.81.139 1.305.268 1.348.114.038.204.354.204.72 0 .469.07.653.25.653s.25.185.25.667c0 .366.075.666.166.666.092 0 .167.173.167.385 0 .212.11.531.245.708.134.178.247.493.25.699.003.22.108.375.255.375.156 0 .25.157.25.417 0 .229.075.416.167.416.091 0 .166.113.166.25 0 .138.113.25.25.25.156 0 .25.158.25.417s.095.417.25.417a.25.25 0 01.25.25c0 .137.075.25.167.25.092 0 .167.112.167.25 0 .137.112.25.25.25.137 0 .25.139.25.31 0 .17.187.45.416.623.23.172.417.407.417.523 0 .116.112.21.25.21.137 0 .25.113.25.25 0 .138.112.25.25.25.137 0 .25.075.25.167 0 .092.188.167.417.167.229 0 .416.08.416.179 0 .314.961 1.154 1.321 1.154.196 0 .346.108.346.25 0 .138.112.25.25.25.137 0 .25.061.25.135 0 .204 1.219.698 1.723.698.283 0 .444.091.444.25 0 .165.164.25.482.25.275 0 .523.108.578.25.055.145.305.25.591.25.273 0 .542.075.599.167.056.092.473.167.926.167.621 0 .824.061.824.25 0 .204.279.25 1.512.25 1.13 0 1.575.064 1.765.253.213.213.778.246 3.53.208l3.276-.045.044-4.625.045-4.625h-3.586c-3.077 0-3.586-.035-3.586-.25 0-.18-.186-.25-.667-.25-.367 0-.667-.075-.667-.166 0-.092-.187-.167-.416-.167-.26 0-.417-.094-.417-.25s-.157-.25-.417-.25c-.229 0-.416-.075-.416-.167 0-.091-.113-.166-.25-.166a.25.25 0 01-.25-.25c0-.138-.1-.25-.222-.25s-.322-.188-.445-.417c-.123-.229-.323-.417-.445-.417s-.222-.112-.222-.25c0-.137-.099-.25-.222-.25-.122 0-.322-.187-.444-.416-.123-.229-.323-.417-.445-.417s-.222-.112-.222-.25-.075-.25-.167-.25c-.091 0-.166-.187-.166-.417 0-.259-.095-.416-.25-.416-.167 0-.25-.167-.25-.5 0-.334-.084-.5-.25-.5-.175 0-.25-.176-.25-.584 0-.32-.075-.583-.167-.583-.092 0-.167-.3-.167-.667 0-.481-.069-.666-.25-.666-.201 0-.25-.26-.25-1.334s-.048-1.333-.25-1.333c-.215 0-.25-.556-.25-4s.035-4 .25-4c.202 0 .25-.259.25-1.333 0-1.074.049-1.334.25-1.334.181 0 .25-.185.25-.666 0-.367.075-.667.167-.667.092 0 .167-.3.167-.667 0-.481.069-.666.25-.666.155 0 .25-.158.25-.417s.094-.417.25-.417a.25.25 0 00.25-.25c0-.137.075-.25.166-.25.092 0 .167-.187.167-.416 0-.26.094-.417.25-.417.137 0 .25-.067.25-.148 0-.157 1.454-1.685 1.603-1.685.157 0 .564-.472.564-.655 0-.098.179-.179.399-.179.219 0 .442-.112.494-.25.053-.137.244-.25.425-.25s.375-.075.432-.166c.056-.092.286-.167.51-.167.25 0 .406-.096.406-.25 0-.181.186-.25.667-.25.367 0 .667-.075.667-.167 0-.107 1.666-.166 4.666-.166 3 0 4.667.059 4.667.166 0 .099.611.167 1.499.167h1.5l.042 20.292.042 20.291 5.459.044 5.458.044v-23.5c0-26.176.091-24.171-1.103-24.171-.316 0-.567-.101-.624-.25-.068-.176-.343-.25-.934-.25-.462 0-.839-.075-.839-.167 0-.093-.466-.166-1.066-.166-.793 0-1.09-.064-1.161-.25-.075-.197-.417-.25-1.601-.25-1.227 0-1.505-.047-1.505-.25 0-.207-.306-.25-1.75-.25-1.056 0-1.75-.066-1.75-.167 0-.106-1.223-.167-3.334-.167-2.852 0-3.333-.036-3.333-.25 0-.205-.297-.25-1.672-.25-1.332 0-1.691.051-1.768.25m-175.852 25.29l.042 24.71h10.833V63.75l-5.459-.044-5.458-.044.042 24.711m17.625-20.708v4.002h4.834v.666c0 .367.075.667.166.667.092 0 .167.3.167.667 0 .481.069.666.25.666s.25.186.25.667c0 .481.069.667.25.667s.25.185.25.666c0 .367.075.667.167.667.091 0 .166.265.166.589 0 .369.093.624.25.684.155.059.25.313.25.661 0 .392.077.566.25.566.181 0 .25.185.25.667 0 .366.075.666.167.666.092 0 .167.3.167.667 0 .481.069.667.25.667.18 0 .25.185.25.666 0 .367.075.667.166.667.092 0 .167.265.167.589 0 .369.093.624.25.684.163.063.25.322.25.745 0 .465.071.649.25.649.181 0 .25.185.25.666 0 .367.075.667.167.667.091 0 .166.265.166.589 0 .369.093.624.25.684.163.063.25.322.25.745 0 .465.071.649.25.649.181 0 .25.185.25.666 0 .367.075.667.167.667.092 0 .167.265.167.589 0 .369.093.624.25.684.163.063.25.322.25.745 0 .465.07.649.25.649s.25.185.25.666c0 .367.075.667.166.667.092 0 .167.265.167.589 0 .369.093.624.25.684.155.059.25.313.25.667 0 .353.095.607.25.666.153.059.25.312.25.652 0 .306.075.602.167.659.091.056.166.361.166.676 0 .399.077.574.25.574.181 0 .25.185.25.666 0 .482.07.667.25.667.181 0 .25.185.25.667 0 .366.075.666.167.666.092 0 .167.265.167.589 0 .369.093.624.25.684.163.063.25.322.25.745 0 .357.075.649.166.649.092 0 .167.22.167.488 0 .269.112.601.25.738.137.138.25.406.25.595 0 .196.108.346.25.346.157 0 .25.158.25.428 0 .44.337.905.655.905.098 0 .178.177.178.393 0 .225.179.528.417.707.229.172.417.407.417.523 0 .116.112.21.25.21.137 0 .25.113.25.25 0 .138.094.25.21.25.116 0 .351.188.523.417.179.238.482.417.707.417.238 0 .393.098.393.25 0 .155.157.25.417.25.229 0 .416.075.416.166 0 .092.3.167.667.167.481 0 .667.069.667.25 0 .214.491.25 3.422.25 2.888 0 3.436-.039 3.517-.25.059-.153.312-.25.652-.25.306 0 .602-.075.659-.167.056-.091.251-.166.431-.166.181 0 .372-.113.425-.25.053-.138.2-.25.328-.25s.232-.113.232-.25c0-.142.15-.25.346-.25.36 0 1.321-.84 1.321-1.154 0-.099.112-.18.25-.18.156 0 .25-.157.25-.416 0-.26.094-.417.25-.417a.25.25 0 00.25-.25c0-.138.075-.25.167-.25.091 0 .166-.187.166-.417 0-.259.095-.416.25-.416.153 0 .25-.156.25-.399 0-.22.113-.442.25-.495.138-.053.25-.286.25-.518 0-.232.075-.422.167-.422.092 0 .167-.254.167-.565 0-.349.095-.602.25-.662.154-.059.25-.312.25-.664 0-.312.112-.661.25-.775.137-.114.25-.424.25-.687 0-.264.075-.48.166-.48.092 0 .167-.292.167-.649 0-.423.087-.682.25-.745.155-.059.25-.313.25-.666 0-.354.095-.608.25-.667.157-.06.25-.315.25-.684 0-.324.075-.589.167-.589.091 0 .166-.3.166-.667 0-.481.07-.666.25-.666.181 0 .25-.186.25-.667 0-.367.075-.667.167-.667.092 0 .167-.3.167-.666 0-.482.069-.667.25-.667.18 0 .25-.185.25-.667 0-.481.069-.666.25-.666.18 0 .25-.186.25-.667 0-.367.075-.667.166-.667.092 0 .167-.3.167-.666 0-.482.069-.667.25-.667s.25-.185.25-.667c0-.481.069-.666.25-.666s.25-.186.25-.667c0-.367.075-.667.167-.667.091 0 .166-.3.166-.666 0-.482.07-.667.25-.667.173 0 .25-.174.25-.566 0-.348.096-.602.25-.661.157-.06.25-.315.25-.684 0-.324.075-.589.167-.589.092 0 .167-.292.167-.649 0-.423.087-.682.25-.745.155-.059.25-.313.25-.666 0-.354.095-.608.25-.667.157-.06.25-.315.25-.684 0-.324.075-.589.166-.589.092 0 .167-.3.167-.667 0-.481.069-.666.25-.666.179 0 .25-.184.25-.649 0-.423.087-.682.25-.745.157-.06.25-.315.25-.684 0-.324.075-.589.167-.589.091 0 .166-.3.166-.667 0-.481.07-.666.25-.666.181 0 .25-.186.25-.667 0-.367.075-.667.167-.667.092 0 .167-.179.167-.399 0-.219.112-.442.25-.494.155-.06.25-.313.25-.667 0-.354.095-.607.25-.667.157-.06.25-.315.25-.684 0-.324.075-.589.166-.589.092 0 .167-.292.167-.649 0-.422.087-.682.25-.744.155-.06.25-.313.25-.667 0-.354.095-.607.25-.667.157-.06.25-.315.25-.684 0-.324.075-.589.167-.589.091 0 .166-.292.166-.649 0-.434.086-.681.261-.748.179-.069.244-.269.208-.643l-.052-.543-5.208-.044-5.209-.044v.502c0 .336-.083.503-.25.503-.18 0-.25.185-.25.666 0 .482-.069.667-.25.667-.18 0-.25.185-.25.667 0 .366-.075.666-.166.666-.092 0-.167.3-.167.667 0 .481-.069.667-.25.667-.176 0-.25.177-.25.595 0 .327-.113.708-.25.845-.138.138-.25.545-.25.905s-.075.655-.167.655c-.091 0-.166.3-.166.666 0 .482-.07.667-.25.667s-.25.183-.25.649c0 .423-.087.682-.25.745-.157.06-.25.315-.25.684 0 .324-.075.589-.167.589-.092 0-.167.3-.167.666 0 .482-.069.667-.25.667-.18 0-.25.185-.25.667 0 .366-.075.666-.166.666-.092 0-.167.3-.167.667 0 .481-.069.667-.25.667-.189 0-.25.203-.25.833 0 .63-.061.833-.25.833-.181 0-.25.186-.25.667 0 .367-.075.667-.167.667-.091 0-.166.3-.166.666 0 .482-.07.667-.25.667s-.25.183-.25.649c0 .423-.087.682-.25.745-.157.06-.25.315-.25.684 0 .324-.075.589-.167.589-.092 0-.167.3-.167.666 0 .482-.069.667-.25.667-.188 0-.25.202-.25.816 0 .571-.075.844-.25.911-.157.06-.25.315-.25.684 0 .324-.075.589-.166.589-.092 0-.167.292-.167.649 0 .423-.087.682-.25.745-.155.059-.25.313-.25.666 0 .354-.095.608-.25.667-.157.06-.25.315-.25.684 0 .324-.075.589-.167.589-.091 0-.166.292-.166.649 0 .423-.087.682-.25.745-.177.067-.25.342-.25.934 0 .634-.061.839-.25.839-.181 0-.25.185-.25.666 0 .367-.075.667-.167.667-.092 0-.167.3-.167.667 0 .481-.069.666-.25.666-.18 0-.25.186-.25.667 0 .367-.075.667-.166.667-.092 0-.167.265-.167.588 0 .37-.093.625-.25.685-.138.052-.25.235-.25.405 0 .425-.91 1.322-1.341 1.322-.454 0-1.326-.872-1.326-1.326 0-.193-.112-.395-.25-.447-.154-.06-.25-.313-.25-.662 0-.311-.075-.565-.166-.565-.092 0-.167-.265-.167-.589 0-.369-.093-.624-.25-.684-.163-.063-.25-.322-.25-.745 0-.466-.071-.649-.25-.649-.181 0-.25-.185-.25-.667 0-.366-.075-.666-.167-.666-.091 0-.166-.286-.166-.635 0-.349-.11-.781-.245-.958-.135-.178-.247-.57-.25-.871-.003-.328-.105-.585-.255-.643-.163-.062-.25-.322-.25-.744 0-.357-.075-.649-.167-.649-.092 0-.167-.265-.167-.589 0-.369-.093-.624-.25-.684-.175-.068-.25-.341-.25-.912 0-.614-.062-.815-.25-.815-.18 0-.25-.186-.25-.667 0-.367-.075-.667-.166-.667-.092 0-.167-.3-.167-.666 0-.482-.069-.667-.25-.667s-.25-.185-.25-.667c0-.481-.069-.666-.25-.666-.189 0-.25-.204-.25-.834 0-.458-.075-.833-.167-.833-.091 0-.166-.265-.166-.589 0-.369-.093-.624-.25-.684-.163-.063-.25-.322-.25-.745 0-.357-.075-.649-.167-.649-.092 0-.167-.3-.167-.666 0-.482-.069-.667-.25-.667-.18 0-.25-.185-.25-.667 0-.481-.069-.666-.25-.666-.188 0-.25-.203-.25-.824 0-.453-.075-.87-.166-.926-.092-.057-.167-.364-.167-.682 0-.361-.094-.615-.25-.675-.163-.062-.25-.322-.25-.744 0-.466-.071-.649-.25-.649-.181 0-.25-.186-.25-.667 0-.367-.075-.667-.167-.667-.091 0-.166-.294-.166-.654 0-.361-.113-.768-.25-.905-.138-.138-.25-.518-.25-.845 0-.418-.075-.596-.25-.596-.181 0-.25-.185-.25-.666 0-.367-.075-.667-.167-.667-.092 0-.167-.3-.167-.667 0-.481-.069-.666-.25-.666-.18 0-.25-.186-.25-.667 0-.481-.069-.667-.25-.667-.189 0-.25-.203-.25-.833 0-.458-.07-.833-.157-.833-.086 0-.18-.319-.208-.709l-.051-.708-6.542-.044-6.542-.043v4.002m71.834-3.748c0 .201-.26.25-1.334.25s-1.333.048-1.333.25c0 .18-.185.25-.667.25-.366 0-.666.075-.666.166 0 .092-.265.167-.589.167-.369 0-.624.093-.684.25-.063.163-.322.25-.745.25-.466 0-.649.071-.649.25 0 .156-.157.25-.417.25-.229 0-.416.075-.416.167 0 .091-.188.166-.417.166-.259 0-.417.095-.417.25 0 .152-.154.25-.393.25-.225 0-.527.179-.706.417-.172.229-.448.417-.612.417-.165 0-.342.112-.395.25-.053.137-.2.25-.328.25s-.232.112-.232.25c0 .137-.113.25-.25.25-.138 0-.25.075-.25.166 0 .092-.113.167-.25.167-.138 0-.25.08-.25.179 0 .23-.424.654-.655.654-.098 0-.179.113-.179.25a.25.25 0 01-.25.25c-.137 0-.25.08-.25.178 0 .098-.262.426-.583.728-.321.303-.583.635-.583.739 0 .104-.113.189-.25.189-.156 0-.25.157-.25.416 0 .26-.095.417-.25.417a.25.25 0 00-.25.25c0 .137-.075.25-.167.25-.092 0-.167.188-.167.417 0 .259-.094.416-.25.416-.152 0-.25.156-.25.399 0 .22-.112.442-.25.495-.137.053-.25.286-.25.518 0 .232-.075.422-.166.422-.092 0-.167.254-.167.565 0 .349-.096.602-.25.662-.176.067-.25.342-.25.934 0 .634-.061.839-.25.839-.197 0-.25.231-.25 1.083 0 .611-.073 1.083-.167 1.083-.108 0-.166 2.611-.166 7.5 0 4.889.058 7.5.166 7.5.094 0 .167.473.167 1.084 0 .852.053 1.083.25 1.083.189 0 .25.204.25.839 0 .591.074.866.25.934.137.053.25.275.25.495 0 .219.075.399.167.399.091 0 .166.3.166.666 0 .482.07.667.25.667.156 0 .25.157.25.417 0 .259.095.416.25.416.156 0 .25.158.25.417 0 .229.075.417.167.417.092 0 .167.112.167.25 0 .137.112.25.25.25.14 0 .25.149.25.341 0 .188.187.515.416.727.23.213.417.472.417.576 0 .104.08.189.179.189.23 0 .654.424.654.655 0 .098.113.178.25.178a.25.25 0 01.25.25c0 .138.081.25.179.25.231 0 .655.424.655.655 0 .098.112.179.25.179a.25.25 0 01.25.25c0 .137.085.25.189.25s.363.187.575.416c.213.23.54.417.728.417.187 0 .341.085.341.19 0 .28.528.632.958.638.22.003.375.109.375.255 0 .156.158.25.417.25s.417.095.417.25c0 .156.157.25.416.25.23 0 .417.075.417.167 0 .092.225.167.5.167.333 0 .5.083.5.25 0 .173.174.25.563.25.31 0 .656.112.77.25.127.152.492.25.937.25.402 0 .73.075.73.166 0 .094.472.167 1.083.167.852 0 1.084.053 1.084.25 0 .216.611.25 4.505.25 3.851 0 4.519-.036 4.601-.25.071-.186.367-.25 1.152-.25.58 0 1.102-.075 1.158-.167.057-.091.364-.166.682-.166.361 0 .615-.095.675-.25.062-.163.322-.25.744-.25.466 0 .649-.071.649-.25 0-.156.158-.25.417-.25.229 0 .417-.066.417-.146 0-.08.3-.193.666-.252.367-.058.667-.18.667-.271 0-.091.112-.165.25-.165a.25.25 0 00.25-.25c0-.155.157-.25.417-.25.229 0 .416-.067.416-.148 0-.082.188-.196.417-.253.229-.058.417-.179.417-.269 0-.089.112-.163.25-.163.137 0 .25-.08.25-.179 0-.282.446-.654.784-.654.315 0 .882-.538.882-.836 0-.09.081-.164.18-.164.233 0 1.154-.921 1.154-1.154 0-.099.112-.18.25-.18.155 0 .25-.157.25-.416 0-.229.08-.417.178-.417.231 0 .655-.424.655-.655 0-.098.112-.178.25-.178.137 0 .25-.146.25-.325 0-.179.188-.527.417-.774.229-.248.416-.581.416-.741 0-.16.113-.335.25-.387.155-.06.25-.313.25-.667 0-.354.095-.607.25-.667.138-.052.25-.285.25-.517 0-.232.075-.422.167-.422.092 0 .167-.255.167-.566 0-.349.095-.602.25-.661.176-.068.25-.343.25-.935 0-.461.075-.838.166-.838.109 0 .167-3.025.167-8.74 0-5.647-.059-8.777-.167-8.844-.091-.056-.166-.438-.166-.848 0-.509-.08-.776-.25-.841-.163-.063-.25-.322-.25-.745 0-.357-.075-.649-.167-.649-.092 0-.167-.19-.167-.422 0-.232-.112-.465-.25-.518-.137-.052-.25-.275-.25-.494 0-.244-.097-.399-.25-.399-.155 0-.25-.158-.25-.417 0-.229-.075-.417-.166-.417-.092 0-.167-.187-.167-.416 0-.26-.094-.417-.25-.417-.152 0-.25-.155-.25-.393 0-.225-.178-.528-.417-.707-.229-.172-.416-.407-.416-.523 0-.116-.113-.21-.25-.21-.141 0-.25-.149-.25-.339 0-.186-.113-.382-.25-.434-.138-.053-.25-.188-.25-.3 0-.113-.188-.305-.417-.427-.229-.123-.417-.323-.417-.445s-.112-.222-.25-.222c-.137 0-.25-.085-.25-.19 0-.28-.528-.632-.958-.638-.206-.003-.375-.086-.375-.185 0-.314-.961-1.154-1.321-1.154-.196 0-.346-.108-.346-.25 0-.152-.155-.25-.399-.25-.219 0-.442-.112-.494-.25-.053-.137-.286-.25-.518-.25-.232 0-.422-.075-.422-.166 0-.092-.187-.167-.417-.167-.259 0-.416-.094-.416-.25 0-.153-.156-.25-.399-.25-.22 0-.442-.113-.495-.25-.06-.157-.315-.25-.684-.25-.324 0-.589-.075-.589-.167 0-.091-.412-.166-.917-.166-.703 0-.916-.058-.916-.25 0-.196-.23-.25-1.066-.25-.793 0-1.09-.064-1.161-.25-.082-.213-.704-.25-4.185-.25-3.523 0-4.088.034-4.088.25m6.166 8.833c0 .189.204.25.834.25.458 0 .833.075.833.167 0 .091.3.166.667.166.481 0 .666.07.666.25 0 .167.167.25.5.25.334 0 .5.084.5.25 0 .138.113.25.25.25.138 0 .25.075.25.167 0 .092.188.167.417.167.259 0 .417.094.417.25 0 .137.075.25.166.25.092 0 .167.112.167.25 0 .137.112.25.25.25.137 0 .25.075.25.166 0 .092.112.167.25.167.137 0 .25.081.25.179 0 .234.921 1.154 1.154 1.154.099 0 .179.225.179.5s.075.5.167.5c.092 0 .167.153.167.339 0 .186.112.382.25.434.137.053.25.276.25.495 0 .22.075.399.166.399.092 0 .167.22.167.488 0 .269.112.601.25.738.15.15.25.558.25 1.017 0 .528.078.797.25.863.216.083.25.887.25 5.828 0 4.985-.033 5.733-.25 5.733-.186 0-.251.201-.255.791-.003.436-.116.938-.25 1.116a1.372 1.372 0 00-.245.708c0 .212-.075.385-.167.385-.091 0-.166.217-.166.482 0 .275-.108.523-.25.578-.138.053-.25.248-.25.434 0 .187-.075.339-.167.339-.092 0-.167.188-.167.417 0 .259-.094.416-.25.416a.251.251 0 00-.25.25c0 .138-.08.25-.178.25-.231 0-.655.424-.655.655 0 .098-.113.179-.25.179a.25.25 0 00-.25.25c0 .137-.08.25-.179.25-.23 0-.654.424-.654.654 0 .099-.188.179-.417.179-.229 0-.417.075-.417.167 0 .091-.112.166-.25.166a.251.251 0 00-.25.25c0 .157-.158.25-.422.25-.232 0-.465.113-.517.25-.059.153-.312.25-.652.25-.306 0-.602.075-.659.167-.056.092-.393.167-.748.167-.354 0-.757.112-.895.25-.366.366-4.526.366-4.667 0-.066-.172-.334-.25-.851-.25-.415 0-.755-.075-.755-.167 0-.092-.3-.167-.667-.167-.481 0-.667-.069-.667-.25 0-.166-.166-.25-.5-.25-.275 0-.5-.08-.5-.178 0-.294-.452-.655-.821-.655-.196 0-.345-.108-.345-.25a.25.25 0 00-.25-.25c-.138 0-.25-.075-.25-.167 0-.091-.113-.166-.25-.166-.138 0-.25-.081-.25-.18 0-.233-.921-1.154-1.154-1.154-.099 0-.182-.168-.185-.375-.006-.43-.358-.958-.638-.958-.105 0-.19-.225-.19-.5 0-.333-.083-.5-.25-.5-.175 0-.25-.176-.25-.583 0-.321-.075-.584-.167-.584-.091 0-.166-.3-.166-.666 0-.482-.07-.667-.25-.667-.204 0-.25-.278-.25-1.505 0-1.184-.054-1.526-.25-1.601-.213-.082-.25-.693-.25-4.078 0-3.429.034-3.983.25-3.983.203 0 .25-.275.25-1.482 0-1.164.053-1.503.25-1.578.155-.06.25-.314.25-.675 0-.318.075-.625.166-.681.092-.057.167-.361.167-.677 0-.399.076-.573.25-.573.137 0 .25-.146.25-.325 0-.179.188-.527.417-.774.229-.248.416-.589.416-.759 0-.17.113-.309.25-.309.138 0 .25-.072.25-.161 0-.218.946-1.172 1.161-1.172.095 0 .173-.113.173-.25a.25.25 0 01.25-.25c.137 0 .25-.113.25-.25 0-.142.149-.25.345-.25.369 0 .821-.361.821-.655 0-.098.3-.179.667-.179.481 0 .667-.069.667-.25 0-.166.166-.25.5-.25.275 0 .5-.075.5-.166 0-.092.375-.167.833-.167.63 0 .833-.061.833-.25 0-.21.361-.25 2.25-.25s2.25.04 2.25.25m128.834 31.333c0 .147-.155.253-.375.256-.418.006-.959.355-.959.62 0 .095-.112.215-.25.268-.137.053-.25.24-.25.417 0 .176-.112.364-.25.416-.176.068-.25.343-.25.935 0 .461-.075.838-.166.838-.092 0-.167.188-.167.417 0 .229.075.417.167.417.091 0 .166.377.166.838 0 .592.074.867.25.935.138.052.25.275.25.494 0 .244.098.399.25.399.138 0 .25.081.25.179 0 .222.421.655.637.655.089 0 .204.112.257.25.059.155.313.25.667.25.353 0 .607.095.666.25.073.189.381.25 1.273.25.893 0 1.201-.061 1.273-.25.058-.152.31-.25.638-.25.384 0 .634-.122.856-.417.172-.229.407-.417.523-.417.116 0 .21-.112.21-.25 0-.137.075-.25.167-.25.092 0 .167-.112.167-.25a.25.25 0 01.25-.25c.18 0 .25-.185.25-.666 0-.482.069-.667.25-.667.198 0 .25-.241.25-1.172 0-.888-.061-1.195-.25-1.268-.143-.054-.25-.303-.25-.578 0-.317-.086-.482-.25-.482-.142 0-.25-.15-.25-.346 0-.448-.873-1.321-1.321-1.321-.196 0-.346-.108-.346-.25 0-.209-.352-.25-2.167-.25-1.814 0-2.166.041-2.166.25m3 1.238c0 .085.131.189.291.231.161.042-.287.085-.994.095-1.08.017-1.271-.02-1.191-.23.108-.281 1.894-.371 1.894-.096M342 108.25c0 1.889-.04 2.25-.25 2.25a.25.25 0 01-.25-.25c0-.138-.075-.25-.167-.25-.091 0-.166-.187-.166-.417 0-.259-.095-.416-.25-.416-.192 0-.25-.213-.25-.917 0-.704.058-.917.25-.917.155 0 .25-.157.25-.416 0-.229.075-.417.166-.417.092 0 .167-.112.167-.25a.25.25 0 01.25-.25c.21 0 .25.361.25 2.25m4.5-1.333c0 .229.075.416.167.416.091 0 .166.413.166.917s-.075.917-.166.917c-.092 0-.167.187-.167.416 0 .26-.094.417-.25.417-.137 0-.25-.075-.25-.167 0-.091-.113-.166-.25-.166-.185 0-.25-.195-.25-.75 0-.556.065-.75.25-.75.189 0 .25-.204.25-.834 0-.629.061-.833.25-.833.156 0 .25.157.25.417m-2.297.208c.122.469-.035.708-.467.708-.336 0-.403-.082-.403-.5 0-.579.729-.753.87-.208m-.274 2.28a.9.9 0 01.238.546c0 .17.148.435.33.591.558.478.255.791-.765.791-.688 0-.899-.058-.899-.25 0-.137.113-.25.25-.25.189 0 .25-.203.25-.833 0-.858.167-1.024.596-.595" fill="#04b4a4" fill-rule="evenodd"/></svg>