<?xml version="1.0" encoding="UTF-8"?>
<svg width="1920px" height="380px" viewBox="0 0 192 38" version="1.1" xmlns="http://www.w3.org/2000/svg" xmlns:xlink="http://www.w3.org/1999/xlink">
    <!-- Generator: Sketch 52.6 (67491) - http://www.bohemiancoding.com/sketch -->
    <title>Artboard</title>
    <desc>Created with Sketch.</desc>
    <g id="Artboard" stroke="none" stroke-width="1" fill="none" fill-rule="evenodd">
        <g id="Logo" transform="translate(3.000000, 8.000000)" fill="white">
            <g id="Window" fill-rule="nonzero">
                <rect id="Rectangle-17" x="0" y="0" width="8.72727273" height="9"></rect>
                <polygon id="Rectangle-17" points="11.6363636 0 20.3636364 0 20.3636364 9 11.6363636 9"></polygon>
                <polygon id="Rectangle-17" points="23.2727273 0 32 0 32 9 23.2727273 9"></polygon>
                <polygon id="Rectangle-17" points="0 12 8.72727273 12 8.72727273 21 0 21"></polygon>
                <polygon id="Rectangle-17" points="11.6363636 12 20.3636364 12 20.3636364 21 11.6363636 21"></polygon>
                <polygon id="Rectangle-17" points="23.2727273 12 32 12 32 21 23.2727273 21"></polygon>
            </g>
            <path d="M48.5572394,12.171875 L42.3256256,12.171875 L40.1854754,17.7148438 L39,17.7148438 L45.1686682,1.9453125 L45.8505788,1.9453125 L51.8933559,17.7148438 L50.6868987,17.7148438 L48.5572394,12.171875 Z M42.7137901,11.1835938 L48.2005477,11.1835938 L46.1128521,5.52246094 C45.9380024,5.0784483 45.7281859,4.46256904 45.4833962,3.67480469 C45.2945585,4.36230812 45.0882389,4.98534877 44.8644312,5.54394531 L42.7137901,11.1835938 Z M58.2607997,5.8125 C59.0860905,5.8125 59.7994667,5.96646981 60.4009499,6.27441406 C61.002433,6.58235831 61.5409621,7.10872023 62.0165535,7.85351563 L62.079499,7.85351563 C62.0375351,6.95116736 62.0165535,6.0667361 62.0165535,5.20019531 L62.0165535,1 L63.0446648,1 L63.0446648,17.7148438 L62.3627542,17.7148438 L62.1004809,15.9316406 L62.0165535,15.9316406 C61.1492987,17.2636785 59.9043872,17.9296875 58.2817815,17.9296875 C56.7081338,17.9296875 55.5051856,17.4283904 54.6729008,16.4257813 C53.840616,15.4231721 53.4244798,13.9622492 53.4244798,12.0429688 C53.4244798,10.0234274 53.8371191,8.48014856 54.6624099,7.41308594 C55.4877007,6.34602331 56.6871519,5.8125 58.2607997,5.8125 Z M58.2607997,6.77929688 C57.0158695,6.77929688 56.0804373,7.22688354 55.4544753,8.12207031 C54.8285132,9.01725708 54.5155368,10.3170488 54.5155368,12.0214844 C54.5155368,15.3300947 55.7709392,16.984375 58.2817815,16.984375 C59.5686757,16.984375 60.5128501,16.6012408 61.1143333,15.8349609 C61.7158164,15.0686811 62.0165535,13.8046963 62.0165535,12.0429688 L62.0165535,11.8603516 C62.0165535,10.055655 61.7210618,8.7576537 61.1300697,7.96630859 C60.5390775,7.17496349 59.5826637,6.77929688 58.2607997,6.77929688 Z M76.5879063,11.8603516 C76.5879063,13.765309 76.1368008,15.2530871 75.2345761,16.3237305 C74.3323514,17.3943738 73.0874398,17.9296875 71.4998041,17.9296875 C70.4996636,17.9296875 69.6184341,17.6826197 68.8560892,17.1884766 C68.0937443,16.6943335 67.5097549,15.9853562 67.1041035,15.0615234 C66.6984521,14.1376907 66.4956294,13.0706441 66.4956294,11.8603516 C66.4956294,9.95539412 66.946735,8.47119672 67.8489597,7.40771484 C68.7511844,6.34423296 69.989102,5.8125 71.5627497,5.8125 C73.1294035,5.8125 74.3585788,6.35139435 75.2503125,7.42919922 C76.1420462,8.50700409 76.5879063,9.9840401 76.5879063,11.8603516 Z M67.5866864,11.8603516 C67.5866864,13.4645263 67.9311352,14.7159786 68.6200432,15.6147461 C69.3089512,16.5135136 70.2828497,16.9628906 71.5417679,16.9628906 C72.8006861,16.9628906 73.7745845,16.5135136 74.4634925,15.6147461 C75.1524005,14.7159786 75.4968494,13.4645263 75.4968494,11.8603516 C75.4968494,10.2490154 75.1489036,8.9993534 74.4530016,8.11132813 C73.7570996,7.22330285 72.7797042,6.77929688 71.520786,6.77929688 C70.2618678,6.77929688 69.2914663,7.2215125 68.6095523,8.10595703 C67.9276383,8.99040156 67.5866864,10.2418539 67.5866864,11.8603516 Z M84.9066635,17.9296875 C83.1511721,17.9296875 81.8712911,17.2565171 81.0669823,15.9101562 L80.9935458,15.9101562 L81.0250186,16.8125 C81.0529945,17.3424506 81.0669823,17.9225229 81.0669823,18.5527344 L81.0669823,23 L80.02838,23 L80.02838,6.03808594 L80.9096183,6.03808594 L81.108946,7.703125 L81.1718916,7.703125 C81.9552185,6.44270203 83.2071239,5.8125 84.9276454,5.8125 C86.4663232,5.8125 87.6395474,6.32991019 88.4473532,7.36474609 C89.255159,8.399582 89.6590559,9.90526355 89.6590559,11.8818359 C89.6590559,13.8011164 89.2341774,15.2888945 88.3844076,16.3452148 C87.5346379,17.4015352 86.3754014,17.9296875 84.9066635,17.9296875 Z M84.8856817,16.984375 C86.053678,16.984375 86.9576376,16.540369 87.5975877,15.6523438 C88.2375378,14.7643185 88.557508,13.5218179 88.557508,11.9248047 C88.557508,8.49444899 87.3475659,6.77929688 84.9276454,6.77929688 C83.5987873,6.77929688 82.6231404,7.15347933 82.0006753,7.90185547 C81.3782102,8.65023161 81.0669823,9.8694577 81.0669823,11.5595703 L81.0669823,11.9033203 C81.0669823,13.7295013 81.3659709,15.0328737 81.963957,15.8134766 C82.5619431,16.5940794 83.5358416,16.984375 84.8856817,16.984375 Z M96.1104271,16.984375 C96.7678622,16.984375 97.3413608,16.9270839 97.83094,16.8125 L97.83094,17.671875 C97.3273728,17.8437509 96.7468803,17.9296875 96.0894453,17.9296875 C95.0823107,17.9296875 94.3392105,17.6539741 93.8601221,17.1025391 C93.3810338,16.551104 93.1414933,15.6845762 93.1414933,14.5029297 L93.1414933,6.96191406 L91.4524532,6.96191406 L91.4524532,6.33886719 L93.1414933,5.85546875 L93.6660399,3.21289063 L94.2010774,3.21289063 L94.2010774,6.03808594 L97.5476849,6.03808594 L97.5476849,6.96191406 L94.2010774,6.96191406 L94.2010774,14.3525391 C94.2010774,15.2477258 94.3549429,15.9101541 94.6626785,16.3398438 C94.970414,16.7695334 95.4529921,16.984375 96.1104271,16.984375 Z M113.734641,9.84082031 C113.734641,12.3330203 113.126173,14.304192 111.909219,15.7543945 C110.692265,17.2045971 109.013732,17.9296875 106.873572,17.9296875 C104.740405,17.9296875 103.065369,17.2045971 101.848415,15.7543945 C100.631461,14.304192 100.022993,12.3258589 100.022993,9.81933594 C100.022993,7.31997448 100.636706,5.35238348 101.864151,3.91650391 C103.091597,2.48062433 104.768381,1.76269531 106.894553,1.76269531 C109.034714,1.76269531 110.70975,2.48420502 111.91971,3.92724609 C113.12967,5.37028716 113.734641,7.34145886 113.734641,9.84082031 Z M101.187486,9.84082031 C101.187486,12.0895295 101.677058,13.8279561 102.656217,15.0561523 C103.635375,16.2843486 105.041146,16.8984375 106.873572,16.8984375 C108.719985,16.8984375 110.131001,16.2897196 111.106663,15.0722656 C112.082324,13.8548116 112.570148,12.111014 112.570148,9.84082031 C112.570148,7.57778816 112.082324,5.84294223 111.106663,4.63623047 C110.131001,3.42951871 108.726979,2.82617188 106.894553,2.82617188 C105.069122,2.82617188 103.661603,3.43488975 102.671953,4.65234375 C101.682304,5.86979775 101.187486,7.59927265 101.187486,9.84082031 Z M122.158308,17.9296875 C120.402816,17.9296875 119.122935,17.2565171 118.318627,15.9101562 L118.24519,15.9101562 L118.276663,16.8125 C118.304639,17.3424506 118.318627,17.9225229 118.318627,18.5527344 L118.318627,23 L117.280024,23 L117.280024,6.03808594 L118.161263,6.03808594 L118.36059,7.703125 L118.423536,7.703125 C119.206863,6.44270203 120.458768,5.8125 122.17929,5.8125 C123.717968,5.8125 124.891192,6.32991019 125.698998,7.36474609 C126.506803,8.399582 126.9107,9.90526355 126.9107,11.8818359 C126.9107,13.8011164 126.485822,15.2888945 125.636052,16.3452148 C124.786282,17.4015352 123.627046,17.9296875 122.158308,17.9296875 Z M122.137326,16.984375 C123.305322,16.984375 124.209282,16.540369 124.849232,15.6523438 C125.489182,14.7643185 125.809152,13.5218179 125.809152,11.9248047 C125.809152,8.49444899 124.59921,6.77929688 122.17929,6.77929688 C120.850432,6.77929688 119.874785,7.15347933 119.25232,7.90185547 C118.629855,8.65023161 118.318627,9.8694577 118.318627,11.5595703 L118.318627,11.9033203 C118.318627,13.7295013 118.617615,15.0328737 119.215601,15.8134766 C119.813587,16.5940794 120.787486,16.984375 122.137326,16.984375 Z M134.956693,17.9296875 C133.299118,17.9296875 132.006997,17.4069063 131.080294,16.3613281 C130.15359,15.31575 129.690245,13.8512464 129.690245,11.9677734 C129.690245,10.105785 130.137854,8.61442618 131.033084,7.49365234 C131.928315,6.37287851 133.13476,5.8125 134.652456,5.8125 C135.995302,5.8125 137.054876,6.29231291 137.831209,7.25195313 C138.607542,8.21159334 138.995702,9.51496572 138.995702,11.1621094 L138.995702,12.0214844 L130.781302,12.0214844 C130.79529,13.6256591 131.160721,14.8502562 131.877605,15.6953125 C132.594489,16.5403688 133.620841,16.9628906 134.956693,16.9628906 C135.607134,16.9628906 136.178884,16.9163416 136.671961,16.8232422 C137.165037,16.7301428 137.789241,16.5296239 138.544592,16.2216797 L138.544592,17.1884766 C137.901145,17.4749363 137.306665,17.6700841 136.761134,17.7739258 C136.215602,17.8777674 135.614128,17.9296875 134.956693,17.9296875 Z M134.652456,6.7578125 C133.5544,6.7578125 132.67317,7.12841426 132.008741,7.86962891 C131.344312,8.61084355 130.956152,9.67968052 130.844248,11.0761719 L137.894154,11.0761719 C137.894154,9.72264948 137.607405,8.66455459 137.033898,7.90185547 C136.460391,7.13915634 135.666585,6.7578125 134.652456,6.7578125 Z M150.377812,17.7148438 L150.377812,10.1416016 C150.377812,8.96711652 150.136523,8.11312116 149.653937,7.57958984 C149.171352,7.04605853 148.423006,6.77929688 147.408878,6.77929688 C146.04505,6.77929688 145.046673,7.13199517 144.413717,7.83740234 C143.78076,8.54280952 143.464287,9.68684104 143.464287,11.2695313 L143.464287,17.7148438 L142.425685,17.7148438 L142.425685,6.03808594 L143.306923,6.03808594 L143.506251,7.63867188 L143.569196,7.63867188 C144.310559,6.42121787 145.628907,5.8125 147.524278,5.8125 C150.112054,5.8125 151.405923,7.23403526 151.405923,10.0771484 L151.405923,17.7148438 L150.377812,17.7148438 Z M153.125884,21.6787109 C152.482437,21.6787109 151.954398,21.5820322 151.541753,21.3886719 L151.541753,20.4433594 C152.087284,20.5865893 152.608329,20.6582031 153.104902,20.6582031 C154.797447,20.6582031 155.643707,19.7129001 155.643707,17.8222656 L155.643707,2.00976563 L156.713783,2.00976563 L156.713783,17.7148438 C156.713783,20.3574351 155.517828,21.6787109 153.125884,21.6787109 Z M172.879757,9.71191406 C172.879757,12.3473439 172.204847,14.3399998 170.855007,15.6899414 C169.505167,17.0398831 167.522401,17.7148438 164.906649,17.7148438 L161.234822,17.7148438 L161.234822,2.00976563 L165.378741,2.00976563 C167.826637,2.00976563 169.688759,2.66503251 170.965162,3.97558594 C172.241565,5.28613937 172.879757,7.19822962 172.879757,9.71191406 Z M171.715264,9.75488281 C171.715264,7.50617365 171.157501,5.81429604 170.04196,4.67919922 C168.926419,3.5441024 167.288101,2.9765625 165.126958,2.9765625 L162.304897,2.9765625 L162.304897,16.7480469 L164.843703,16.7480469 C169.424766,16.7480469 171.715264,14.4170155 171.715264,9.75488281 Z M187,17.7148438 L185.688633,17.7148438 L179.80322,9.421875 L177.757489,11.2695313 L177.757489,17.7148438 L176.687413,17.7148438 L176.687413,2.00976563 L177.757489,2.00976563 L177.757489,10.1738281 L179.45702,8.43359375 L185.468324,2.00976563 L186.832145,2.00976563 L180.548077,8.6484375 L187,17.7148438 Z" id="AdoptOpenJDK"></path>
        </g>
    </g>
</svg>
