<?xml version="1.0" encoding="UTF-8" standalone="no"?>
<svg
   xmlns:dc="http://purl.org/dc/elements/1.1/"
   xmlns:cc="http://creativecommons.org/ns#"
   xmlns:rdf="http://www.w3.org/1999/02/22-rdf-syntax-ns#"
   xmlns:svg="http://www.w3.org/2000/svg"
   xmlns="http://www.w3.org/2000/svg"
   width="52.595531mm"
   height="16.581156mm"
   viewBox="0 0 52.595531 16.581156"
   version="1.1"
   id="svg785">
  <defs
     id="defs779">
    <clipPath
       clipPathUnits="userSpaceOnUse"
       id="clipPath32">
      <path
         d="m 390.1,762.65 h 149.7633 v 47.76074 H 390.1 Z"
         id="path30" />
    </clipPath>
  </defs>
  <metadata
     id="metadata782">
    <rdf:RDF>
      <cc:Work
         rdf:about="">
        <dc:format>image/svg+xml</dc:format>
        <dc:type
           rdf:resource="http://purl.org/dc/dcmitype/StillImage" />
        <dc:title></dc:title>
      </cc:Work>
    </rdf:RDF>
  </metadata>
  <g
     id="layer1">
    <g
       id="g26"
       transform="matrix(0.35277777,0,0,-0.35277777,-137.73619,285.76347)">
      <path
         d="m 412.3886,810.0382 v 0 c -3.5256,0 -7.0513,-1.1344 -9.936,-3.35 -2.0833,-1.6212 -3.3122,-3.4586 -3.6859,-4.0525 -0.3205,-0.2163 -1.0147,-0.6484 -1.6559,-1.2429 -0.1603,-0.1625 -0.4274,-0.5406 -0.6945,-1.1352 -0.2137,-0.5938 -0.4273,-1.2962 -0.5342,-2.2149 -0.1602,-0.9727 -0.1602,-1.8375 -0.1602,-2.3774 -0.0535,-0.0546 -0.1603,-0.0546 -0.2138,-0.1085 -0.4273,-0.1618 -0.8546,-0.3782 -1.1752,-0.6485 -0.3739,-0.3243 -0.8547,-0.7024 -1.282,-1.4048 -0.2137,-0.3781 -0.374,-0.7562 -0.4808,-0.9726 -0.0535,-0.0539 -0.1068,-0.1079 -0.1602,-0.1618 -0.4274,-0.3242 -0.7479,-0.5945 -0.9082,-0.8109 -0.3205,-0.4859 -0.5342,-0.918 -0.6945,-1.5125 v 0 c -0.0534,-0.2164 -0.1602,-0.4867 -0.3205,-2.8641 -0.0534,-1.5126 -0.0534,-3.4579 -0.0534,-3.8907 0,-0.5938 0.1602,-1.1344 0.4274,-1.6211 0.1602,-0.2157 0.4273,-0.5938 0.7479,-0.918 0.1602,-0.1625 0.267,-0.2704 0.3739,-0.3782 0.0534,-0.2164 0.1602,-0.5406 0.3205,-0.8648 0.2136,-0.486 0.4274,-0.8649 0.8013,-1.2969 0.8013,-0.9187 1.8163,-1.3508 2.4038,-1.5126 0.1603,-0.8648 0.5343,-2.5398 1.8695,-3.6749 1.2288,-1.0267 4.8616,-4.1064 7.3187,-6.1597 0.7481,-0.6484 1.3891,-1.1887 1.7628,-1.4589 0.6949,-0.5944 1.5494,-1.0807 2.3507,-1.4049 0.8013,-0.2702 1.9763,-0.3783 2.8315,-0.3783 v -0.0539 h 0.7473 v 0 h 0.7482 v 0.0539 c 0.9083,0 2.0833,0.1081 2.8846,0.3783 0.7481,0.3242 1.6558,0.8105 2.3507,1.4049 0.3205,0.2702 0.9615,0.8105 1.7628,1.4589 2.4039,2.0533 6.0367,5.133 7.2648,6.1597 1.336,1.1351 1.7097,2.8101 1.87,3.6749 0.641,0.1618 1.6557,0.5939 2.457,1.5126 0.3205,0.432 0.5879,0.8109 0.7481,1.2969 0.1603,0.3242 0.2674,0.6484 0.3205,0.8648 0.1071,0.1078 0.2674,0.2157 0.4276,0.3782 0.3206,0.3242 0.5872,0.7023 0.6942,0.918 0.2674,0.4867 0.4276,1.0273 0.4808,1.6211 0,0.4328 0,2.3781 -0.1071,3.8907 -0.1602,2.3774 -0.2134,2.6477 -0.3205,2.8641 v 0 c -0.1063,0.5945 -0.3205,1.0266 -0.6942,1.5125 -0.1603,0.2164 -0.4276,0.4867 -0.8545,0.8109 -0.107,0.0539 -0.1602,0.1079 -0.2141,0.1618 -0.1064,0.2164 -0.2666,0.5945 -0.4808,0.9726 -0.4269,0.7024 -0.8545,1.0805 -1.2282,1.4048 -0.3744,0.2703 -0.8013,0.4867 -1.1757,0.6485 -0.1063,0.0539 -0.2134,0.0539 -0.2666,0.1085 0,0.5399 0,1.4047 -0.1602,2.3774 -0.1071,0.9187 -0.2674,1.6211 -0.4808,2.2149 -0.2673,0.5946 -0.5347,0.9727 -0.7481,1.1352 -0.6411,0.5945 -1.3353,1.0266 -1.6558,1.2429 -0.3205,0.5939 -1.6026,2.4313 -3.6866,4.0525 -2.8847,2.2156 -6.4104,3.35 -9.9361,3.35 z"
         style="fill:#fefefe;fill-opacity:1;fill-rule:evenodd;stroke:none"
         id="path34" />
      <path
         d="m 455.3364,789.007 v 0 c 0,0.9188 -0.4815,1.3515 -2.1932,1.3515 -1.7125,0 -3.2102,-0.9194 -3.4243,-1.0812 l -2.033,-13.8366 h -7.7038 l 2.1933,14.7015 -1.7118,0.2163 0.3744,5.5125 h 8.9348 l 0.3205,-1.1351 h 0.2141 c 0,0 1.9792,1.9999 6.4735,1.9999 4.3362,0 6.5273,-1.6757 6.5273,-5.4046 0,-0.5945 -0.0567,-1.189 -0.1631,-1.8375 l -1.1771,-7.7289 c 0.0567,-0.5406 0.3262,-0.703 0.4325,-0.703 0.3688,0 1.6026,0.0546 1.6026,0.0546 l -0.3191,-5.1351 c 0,0 -3.3725,-0.9726 -6.5819,-0.9726 -2.4074,0 -3.4775,1.0812 -3.4775,2.5944 0,0.8649 1.7118,10.2688 1.7118,11.4039 z"
         style="fill:#009ad7;fill-opacity:1;fill-rule:evenodd;stroke:none"
         id="path36" />
      <path
         d="m 467.4139,795.8491 v 0 h 9.9772 l -2.1486,-13.9296 c 0.0567,-0.7016 0.3191,-0.8641 0.4254,-0.8641 0.3759,0 1.6097,0.0539 1.6097,0.0539 l -0.3191,-5.1286 c 0,0 -3.3257,-0.972 -6.5947,-0.972 -2.418,0 -3.4321,1.0258 -3.4321,2.5916 0,0.2157 0,0.3782 0.0497,0.5939 l 1.7728,11.9317 -1.7161,0.2163 z"
         style="fill:#009ad7;fill-opacity:1;fill-rule:evenodd;stroke:none"
         id="path38" />
      <path
         d="m 495.7782,789.007 v 0 c 0,0.9188 -0.4822,1.3515 -2.1415,1.3515 -1.716,0 -3.2193,-0.9194 -3.4321,-1.0812 l -2.0351,-13.8366 h -7.7647 l 2.2478,14.7015 -1.7656,0.2163 0.4254,5.5125 h 8.949 l 0.319,-1.1351 h 0.2128 c 0,0 1.9855,1.9999 6.4883,1.9999 4.283,0 6.4813,-1.6757 6.4813,-5.4046 0,-0.5945 0,-1.189 -0.1631,-1.8375 l -1.1772,-7.7289 c 0.1064,-0.5406 0.3191,-0.703 0.4822,-0.703 0.3191,0 1.6097,0.0546 1.6097,0.0546 l -0.3262,-5.1351 c 0,0 -3.3753,-0.9726 -6.5876,-0.9726 -2.4677,0 -3.4817,1.0812 -3.4817,2.5944 0,0.8649 1.6593,10.2688 1.6593,11.4039 z"
         style="fill:#009ad7;fill-opacity:1;fill-rule:evenodd;stroke:none"
         id="path40" />
      <path
         d="m 525.972,779.4052 v 0 c 0,0 -2.2408,-4.9286 -9.2822,-4.9286 -5.8147,0 -10.1402,3.0868 -10.1402,9.2066 0,7.8537 5.8714,13.0526 12.5937,13.0526 4.6446,0 8.3249,-2.5994 8.3249,-6.7157 0,-4.9286 -3.893,-6.8782 -13.395,-7.0407 0.2695,-2.1659 2.028,-2.8704 3.7866,-2.8704 2.886,0 4.3823,2.0042 4.3823,2.0042 z m -11.523,8.2318 v 0 c 5.1765,0.0547 6.2401,0.7584 6.2401,2.1121 0,0.8124 -0.6381,1.6247 -2.3967,1.6247 -1.6026,0 -3.0989,-0.7577 -3.8434,-3.7368 z"
         style="fill:#009ad7;fill-opacity:1;fill-rule:evenodd;stroke:none"
         id="path42" />
      <path
         d="m 411.0825,784.6367 v 0 c 0.268,0.5939 0.5354,1.6729 -0.2142,2.0511 -0.9636,0.486 -2.4088,0.6477 -3.4257,0.5938 -1.8734,-0.0539 -3.2654,-0.4859 -3.5327,-0.6477 -0.2681,-0.1618 -0.5354,-0.6478 0.8027,-0.5939 2.0344,0 1.8202,-0.5938 2.0344,-1.2415 0.3212,-1.0259 1.1239,-1.1876 2.6762,-1.1876 0.8027,0 1.392,0.3781 1.6593,1.0258 z"
         style="fill:#2d3a4c;fill-opacity:1;fill-rule:evenodd;stroke:none"
         id="path44" />
      <path
         d="m 413.7452,784.6367 v 0 c -0.266,0.5939 -0.5319,1.6729 0.2127,2.0511 0.9573,0.486 2.3932,0.6477 3.4037,0.5938 1.8614,-0.0539 3.2974,-0.4859 3.5101,-0.6477 0.2659,-0.1618 0.585,-0.6478 -0.7978,-0.5939 -2.0209,0 -1.8082,-0.5938 -2.0209,-1.2415 -0.3191,-1.0259 -1.1168,-1.1876 -2.6591,-1.1876 -0.7978,0 -1.3828,0.3781 -1.6487,1.0258 z"
         style="fill:#2d3a4c;fill-opacity:1;fill-rule:evenodd;stroke:none"
         id="path46" />
      <path
         d="m 409.7274,778.6759 v 0 c -0.4305,-0.3235 -0.5914,-0.3774 -0.2688,-0.8088 0.2688,-0.3228 0.6992,-0.2157 1.075,-0.3228 0.3227,-0.1078 1.1296,-0.8627 1.3984,-1.0784 0.2149,-0.1618 0.3758,-0.2157 0.4836,-0.2157 v 0 0 c 0.161,0 0.2688,0.0539 0.4836,0.2157 0.2695,0.2157 1.0757,0.9706 1.4523,1.0784 0.3219,0.1071 0.7523,0 1.0211,0.3228 0.3226,0.4314 0.1616,0.4853 -0.2688,0.8088 -0.4836,0.3235 -0.914,0.2156 -1.1289,0.0539 -0.4843,-0.3236 -0.8062,-0.4853 -0.9679,-0.5931 -0.161,-0.1078 -0.3765,-0.1618 -0.5914,-0.1618 -0.2149,0 -0.4304,0.054 -0.5914,0.1618 -0.161,0.1078 -0.4836,0.2695 -0.9679,0.5931 -0.2149,0.1617 -0.6453,0.2696 -1.1289,-0.0539 z"
         style="fill:#2d3a4c;fill-opacity:1;fill-rule:evenodd;stroke:none"
         id="path48" />
      <path
         d="m 432.1635,786.3714 v 0 0 c 0,0 0,0 0,0 0,0 0,0 0,0 -0.0531,1.5126 -0.2134,2.8094 -0.2134,2.8094 0,0 -0.0539,0.5399 -0.3213,0.9188 -0.2673,0.3242 -0.909,0.7023 -1.1763,1.0266 0,0 0,0.0539 0,0.0539 0.2141,-1.3508 0.4275,-3.0798 0.5346,-4.9173 0,-0.7563 0.0539,-1.5126 0.0539,-2.2688 -0.0539,-0.1625 -0.0539,-0.3782 -0.1071,-0.4321 -0.1071,-0.2703 -0.3212,-0.3789 -0.4814,-0.5406 -0.1603,-0.1078 -0.2674,-0.2703 -0.4277,-0.4321 0.0532,1.0805 0.0532,2.3235 0,3.6736 -0.1602,3.7282 -0.909,6.5377 -1.4437,7.0244 -0.1071,0.1617 -0.3205,0.2157 -0.4815,0.2703 -0.3737,0.0539 -0.802,0.1078 -1.4437,0.1078 0.5885,2.3774 0,5.6728 -0.4808,6.1056 -0.4815,0.4321 -1.0693,0.8102 -1.6579,1.1344 -2.4592,4.1064 -6.9506,6.9159 -12.0839,6.9159 -5.1332,0 -9.5715,-2.8095 -12.0846,-6.9159 -0.5878,-0.3242 -1.1764,-0.7023 -1.6571,-1.1344 -0.4277,-0.4328 -1.0694,-3.7282 -0.4815,-6.1056 -0.5879,0 -1.0694,-0.0539 -1.4437,-0.1078 -0.1069,-0.0546 -0.3208,-0.1086 -0.4812,-0.2703 -0.5347,-0.4867 -1.2832,-3.2962 -1.4437,-7.0244 -0.0534,-1.3501 -0.0534,-2.5931 0,-3.6736 -0.1604,0.1618 -0.2673,0.3243 -0.4277,0.4321 -0.1604,0.1617 -0.3743,0.2703 -0.4812,0.5406 -0.0535,0.0539 -0.0535,0.2696 -0.0535,0.4321 0,0.7562 0,1.5125 0.0535,2.2688 0.0535,1.8375 0.2673,3.5665 0.5347,4.9173 -0.0535,0 -0.0535,-0.0539 -0.0535,-0.0539 -0.2673,-0.3243 -0.909,-0.7024 -1.1763,-1.0266 -0.2674,-0.3789 -0.3208,-0.9188 -0.3208,-0.9188 0,0 -0.1604,-1.2968 -0.214,-2.8094 0,0 0,0 0,0 0,0 0,0 0,0 -0.0535,-1.5133 -0.0535,-2.8095 -0.0535,-2.8095 0,0 0,-0.5945 0.214,-0.9187 0.2673,-0.3782 0.8555,-0.8103 1.0694,-1.1891 0.2139,-0.3235 0.3208,-1.2961 1.0159,-1.9985 0.6416,-0.5946 1.1763,-0.7571 2.7269,-0.8109 v -0.54 c 0,-0.7023 0.0532,-2.4312 1.1232,-3.404 0.2673,-0.2163 7.0578,-5.8893 9.0893,-7.6182 0.2142,-0.2162 0.8559,-0.6484 1.6048,-0.9726 0.641,-0.2701 1.8713,-0.3242 2.9406,-0.3242 1.1225,0 2.299,0.0541 2.9407,0.3242 0.802,0.3242 1.3906,0.7564 1.604,0.9726 2.0855,1.7289 8.8227,7.4019 9.09,7.6182 1.0694,0.9728 1.1233,2.7017 1.1233,3.404 v 0.54 c 1.5501,0.0538 2.1386,0.2163 2.7265,0.8109 0.7488,0.7024 0.802,1.675 1.0161,1.9985 0.2142,0.3788 0.8552,0.8109 1.0694,1.1891 0.2141,0.3242 0.2141,0.9187 0.2141,0.9187 0,0 0.0532,1.2962 -0.0539,2.8095 z M 399.8141,798.96 v 0 c 1.9784,2.6477 10.4806,3.2423 10.8543,1.5133 0.2673,-1.243 -0.6411,-7.7267 -7.5392,-7.7807 -4.5979,-0.0539 -4.1171,5.1869 -3.3151,6.2674 z m 23.4735,-17.1817 v 0 c -0.1602,-0.2696 -1.0693,-1.1344 -1.1764,-1.4586 -0.107,-0.3242 -0.0532,-0.6484 -0.0532,-0.6484 l -0.0538,-4.0518 c 0,0 0.0538,-1.2969 -0.3745,-1.6211 -0.802,-0.7024 -6.3628,-5.3491 -6.3628,-5.3491 0,0 -0.3744,-0.3242 -0.802,-0.4863 -0.4276,-0.1621 -2.0316,-0.1621 -2.0316,-0.1621 0,0 0,0 0,0 0,0 0,0 0,0 0,0 -1.5508,0 -2.0323,0.1621 -0.4276,0.1621 -0.802,0.4863 -0.802,0.4863 0,0 -5.5608,4.6467 -6.3628,5.3491 -0.4276,0.3242 -0.3744,1.6211 -0.3744,1.6211 v 4.0518 c 0,0 0,0.3242 -0.1064,0.6484 -0.107,0.3242 -0.9629,1.189 -1.1764,1.4586 -0.2141,0.3242 -0.3212,0.8109 -0.3212,1.243 0,0.3242 0.1603,5.1869 0.1603,5.1869 0,0 0.1609,0.3242 0.6956,0.6484 1.9784,1.1884 10.3196,1.1884 10.3196,1.1884 v 0 c 0,0 8.3944,0 10.3729,-1.1884 0.4814,-0.3242 0.6417,-0.6484 0.6417,-0.6484 0,0 0.1603,-4.8627 0.1603,-5.1869 0,-0.4321 -0.0532,-0.9188 -0.3206,-1.243 z m -1.5508,10.9143 v 0 c -6.8975,0.054 -7.8065,6.5377 -7.5392,7.7807 0.3744,1.729 8.9298,1.1344 10.8543,-1.5133 0.802,-1.0805 1.3366,-6.3213 -3.3151,-6.2674 z"
         style="fill:#2d3a4c;fill-opacity:1;fill-rule:evenodd;stroke:none"
         id="path50" />
      <path
         d="m 416.3058,775.7181 v 0 c -0.2681,0 -0.858,-0.4909 -1.341,-0.6548 -0.2148,-0.0546 -0.4297,-0.1093 -0.6977,-0.1093 -0.1078,0 -1.7707,0 -1.8785,0 -0.107,0 -1.7706,0 -1.8776,0 -0.2149,0 -0.4298,0.0547 -0.6978,0.1093 -0.4297,0.1639 -1.0736,0.6548 -1.3416,0.6548 -0.2688,0 -1.0198,-0.6548 -0.9127,-0.9279 0.161,-0.2724 0.6439,0.1638 1.1275,-0.1093 0.2141,-0.1085 0.858,-0.5456 0.9658,-0.6548 0.161,-0.1086 0.429,-0.2724 0.6971,-0.3271 0.3226,-0.1092 1.8784,-0.1092 2.0393,-0.1092 0.161,0 1.7175,0 2.0394,0.1092 0.2681,0.0547 0.59,0.2185 0.6978,0.3271 0.1071,0.1092 0.7509,0.5463 0.9658,0.6548 0.5368,0.2731 0.9658,-0.1631 1.1268,0.1093 0.1609,0.2731 -0.6439,0.9279 -0.9126,0.9279 z"
         style="fill:#2d3a4c;fill-opacity:1;fill-rule:evenodd;stroke:none"
         id="path52" />
      <path
         d="m 468.2932,768.8267 v 0 c -0.0496,0.0546 -0.2127,0.1639 -0.4751,0.1639 -0.6382,0 -1.1204,-0.3825 -1.1204,-1.7488 0,-0.7652 0.4822,-1.1477 0.9573,-1.1477 0.6382,0 0.9573,0.5465 0.9573,0.5465 l 0.5886,-0.4373 c 0,0 -0.4255,-1.0384 -1.7586,-1.0384 -1.2268,0 -2.0209,0.8198 -2.0209,2.0222 0,1.6396 0.8509,2.678 2.1273,2.678 0.4254,0 0.7445,-0.1639 0.9573,-0.3279 l 0.1631,0.2733 h 0.7445 l -0.1631,-1.8036 h -0.9573 z"
         style="fill:#009ad7;fill-opacity:1;fill-rule:evenodd;stroke:none"
         id="path54" />
      <path
         d="m 470.5765,771.8161 v 0 h 1.7586 l -0.8013,-5.2432 c 0,-0.2141 0.1064,-0.2676 0.1631,-0.2676 0.1064,0 0.3688,0.0535 0.3688,0.0535 l -0.0497,-0.856 c 0,0 -0.6382,-0.1605 -1.2267,-0.1605 -0.4255,0 -0.5815,0.1605 -0.5815,0.535 0,0.0535 0,0.107 0,0.1605 l 0.7446,4.8688 -0.4255,0.0532 z"
         style="fill:#009ad7;fill-opacity:1;fill-rule:evenodd;stroke:none"
         id="path56" />
      <path
         d="m 472.867,767.1871 v 0 c 0,1.6396 0.9502,2.678 2.652,2.678 1.2693,0 1.9572,-0.6558 1.9572,-1.8582 0,-1.6397 -1.0566,-2.842 -2.6521,-2.842 -1.2693,0 -1.9571,0.8198 -1.9571,2.0222 z m 3.3398,0.8744 v 0 c 0,0.5466 -0.2694,0.9291 -0.7941,0.9291 -0.7942,0 -1.2764,-0.6012 -1.2764,-1.9128 0,-0.6012 0.2694,-0.9837 0.7942,-0.9837 0.7942,0 1.2763,0.6558 1.2763,1.9674 z"
         style="fill:#009ad7;fill-opacity:1;fill-rule:evenodd;stroke:none"
         id="path58" />
      <path
         d="m 481.2131,769.6877 v 0 h 1.7586 l -0.4822,-3.106 v -0.0545 c 0,-0.218 0.0568,-0.2724 0.1064,-0.2724 0.1064,0 0.3758,0.0544 0.3758,0.0544 l -0.0567,-0.8718 c 0,0 -0.5815,-0.1635 -1.17,-0.1635 -0.3759,0 -0.5319,0.109 -0.5319,0.3814 h -0.0567 c 0,0 -0.4822,-0.4904 -1.4395,-0.4904 -0.9076,0 -1.3331,0.4904 -1.3331,1.3078 0,0.109 0,0.218 0,0.3815 l 0.3191,1.9072 -0.4254,0.0545 0.0496,0.8718 h 1.7586 l -0.3688,-2.6156 c -0.0567,-0.0545 -0.0567,-0.1635 -0.0567,-0.2179 0,-0.3815 0.1631,-0.5994 0.6453,-0.5994 0.5318,0 0.9076,0.3269 0.9076,0.3269 l 0.3192,2.1797 -0.3759,0.0545 z"
         style="fill:#009ad7;fill-opacity:1;fill-rule:evenodd;stroke:none"
         id="path60" />
      <path
         d="m 487.2193,771.8161 v 0 h 1.7798 l -0.8083,-5.0831 c 0,-0.1081 -0.0568,-0.1621 -0.0568,-0.2162 0,-0.2163 0.1135,-0.2703 0.1631,-0.2703 0.1064,0 0.3758,0.054 0.3758,0.054 l -0.0496,-0.8652 c 0,0 -0.5956,-0.1622 -1.1842,-0.1622 -0.3829,0 -0.546,0.1081 -0.5957,0.3785 v 0 c 0,0 -0.4325,-0.4867 -1.404,-0.4867 -1.0211,0 -1.6664,0.8652 -1.6664,1.9467 0,1.5682 0.9644,2.7038 2.3684,2.7038 0.8652,0 1.1843,-0.2704 1.1843,-0.2704 h 0.0567 l 0.2127,1.3517 -0.4325,0.0539 z m -0.3262,-5.2452 v 0 l 0.3262,2.0548 c -0.0567,0.0541 -0.3262,0.2704 -0.7516,0.2704 -0.8652,0 -1.3474,-0.4867 -1.3474,-1.8385 0,-0.5949 0.2695,-0.9194 0.858,-0.9194 0.4894,0 0.8084,0.3245 0.9148,0.4327 z"
         style="fill:#009ad7;fill-opacity:1;fill-rule:evenodd;stroke:none"
         id="path62" />
      <path
         d="m 495.5513,768.4114 v 0 c 0,0.323 -0.2127,0.4306 -0.6311,0.4306 -0.5318,0 -0.9006,-0.2691 -0.9502,-0.2691 l -0.4751,-3.1229 h -1.2126 l 0.468,3.3382 -0.3687,0.0538 0.0567,0.8616 h 1.5813 l 0.0568,-0.2692 v 0 c 0,0 0.4183,0.4307 1.4252,0.4307 0.8439,0 1.319,-0.3231 1.319,-1.0769 0,-0.1077 0,-0.2153 -0.0567,-0.3768 l -0.2624,-1.8307 c 0,-0.2154 0.0496,-0.2693 0.156,-0.2693 0.1064,0 0.3191,0.0539 0.3191,0.0539 v -0.8615 c 0,0 -0.6311,-0.1615 -1.2126,-0.1615 -0.4254,0 -0.5814,0.1615 -0.5814,0.5384 0,0.2154 0.3687,2.3153 0.3687,2.5307 z"
         style="fill:#009ad7;fill-opacity:1;fill-rule:evenodd;stroke:none"
         id="path64" />
      <path
         d="m 502.1673,766.7499 v 0 c -0.0568,-0.1093 -0.0568,-0.164 -0.0568,-0.2187 0,-0.2186 0.1135,-0.2732 0.1631,-0.2732 0.1064,0 0.3758,0.0546 0.3758,0.0546 l -0.0567,-0.8744 c 0,0 -0.6382,-0.164 -1.1771,-0.164 -0.4255,0 -0.5885,0.164 -0.5885,0.4372 v 0 c 0,0 -0.4255,-0.5465 -1.3899,-0.5465 -1.0211,0 -1.6593,0.8745 -1.6593,1.9675 0,1.6396 1.014,2.7327 2.4606,2.7327 0.8013,0 1.1275,-0.3826 1.1275,-0.3826 h 0.0496 l 0.2128,0.2187 h 0.9643 z m -1.2835,-0.1093 v 0 l 0.3191,2.0221 c -0.0568,0.0547 -0.3191,0.2733 -0.7517,0.2733 -0.858,0 -1.3898,-0.4918 -1.3898,-1.8582 0,-0.6012 0.3191,-0.9291 0.9076,-0.9291 0.4822,0 0.8581,0.3825 0.9148,0.4919 z"
         style="fill:#009ad7;fill-opacity:1;fill-rule:evenodd;stroke:none"
         id="path66" />
      <path
         d="m 506.3794,769.6877 v 0 h 1.8578 c -0.3191,-1.1854 -1.0636,-2.6402 -2.4393,-4.2567 h -1.1133 l -0.7446,3.3407 -0.5814,0.0539 0.0496,0.8621 h 1.7515 l 0.5318,-2.9635 h 0.0496 c 0.3759,0.5388 0.7943,1.2932 1.1134,1.9936 l -0.5319,0.1078 z"
         style="fill:#009ad7;fill-opacity:1;fill-rule:evenodd;stroke:none"
         id="path68" />
      <path
         d="m 508.8187,769.7253 v 0 h 1.7586 l -0.4822,-3.0843 c 0,-0.2706 0.1063,-0.3248 0.1631,-0.3248 0.1063,0 0.3687,0.0542 0.3687,0.0542 l -0.0496,-0.8658 c 0,0 -0.6382,-0.1623 -1.17,-0.1623 -0.4255,0 -0.6383,0.1623 -0.6383,0.5411 0,0.054 0,0.1082 0,0.1623 l 0.4255,2.7597 -0.4255,0.0541 z m 2.0777,1.4608 v 0 c 0,-0.4327 -0.2695,-0.8116 -0.8013,-0.8116 -0.4255,0 -0.6382,0.2164 -0.6382,0.5952 0,0.2164 0.1631,0.7577 0.8013,0.7577 0.2623,0 0.6382,-0.1085 0.6382,-0.5413 z"
         style="fill:#009ad7;fill-opacity:1;fill-rule:evenodd;stroke:none"
         id="path70" />
      <path
         d="m 511.5842,764.6624 v 0 l 0.8509,0.1084 v -0.7587 c 0.2128,-0.0542 0.4255,-0.1084 0.695,-0.1084 0.7445,0 1.2196,0.4877 1.2196,1.409 0,0.0542 0,0.1626 0,0.2168 H 514.3 c 0,0 -0.4254,-0.3252 -1.2267,-0.3252 -1.0637,0 -1.6451,0.8672 -1.6451,2.0052 0,1.5717 1.0069,2.6556 2.34,2.6556 0.9573,0 1.1701,-0.4335 1.1701,-0.4335 h 0.0496 l 0.1631,0.2709 h 1.0637 l -0.6382,-4.0646 c 0.0496,-0.0542 0.0496,-0.1626 0.0496,-0.2168 0,-1.5717 -1.2197,-2.3846 -2.5528,-2.3846 -1.1133,0 -1.6451,0.3252 -1.6451,0.3252 z m 2.8719,1.7342 v 0 l 0.3191,2.1679 c -0.0497,0.1083 -0.2624,0.4335 -0.7446,0.4335 -0.7942,0 -1.2764,-0.4335 -1.2764,-1.7885 0,-0.7045 0.2695,-1.0839 0.851,-1.0839 0.4821,0 0.8012,0.2168 0.8509,0.271 z"
         style="fill:#009ad7;fill-opacity:1;fill-rule:evenodd;stroke:none"
         id="path72" />
      <path
         d="m 521.228,766.7499 v 0 c 0,-0.1093 0,-0.164 0,-0.2187 0,-0.2186 0.0568,-0.2732 0.1064,-0.2732 0.1064,0 0.3759,0.0546 0.3759,0.0546 l -0.0568,-0.8744 c 0,0 -0.5814,-0.164 -1.17,-0.164 -0.3688,0 -0.5318,0.164 -0.5318,0.4372 h -0.0497 c 0,0 -0.4254,-0.5465 -1.3827,-0.5465 -1.0141,0 -1.5955,0.8745 -1.5955,1.9675 0,1.6396 0.9572,2.7327 2.3897,2.7327 0.8509,0 1.1203,-0.3826 1.1203,-0.3826 h 0.0497 l 0.2127,0.2187 h 1.0141 z m -1.2763,-0.1093 v 0 l 0.3191,2.0221 c -0.0497,0.0547 -0.2624,0.2733 -0.7446,0.2733 -0.8509,0 -1.326,-0.4918 -1.326,-1.8582 0,-0.6012 0.2623,-0.9291 0.8509,-0.9291 0.5318,0 0.8509,0.3825 0.9006,0.4919 z"
         style="fill:#009ad7;fill-opacity:1;fill-rule:evenodd;stroke:none"
         id="path74" />
      <path
         d="m 522.7314,769.6122 v 0 l 0.5389,0.0533 v 0 l 0.4254,1.4411 h 1.0637 l -0.2127,-1.4411 h 1.0637 l -0.1064,-0.9073 h -1.1204 l -0.2624,-1.8147 c -0.0567,-0.1067 -0.0567,-0.2135 -0.0567,-0.2669 0,-0.2669 0.1063,-0.3736 0.3758,-0.3736 0.3191,0 0.5815,0.0534 0.5815,0.0534 l -0.0496,-0.8006 c 0,0 -0.3192,-0.2135 -1.0637,-0.2135 -0.7517,0 -1.1204,0.2135 -1.1204,0.9073 0,0.1068 0,0.2669 0,0.3736 l 0.3191,2.135 h -0.4255 z"
         style="fill:#009ad7;fill-opacity:1;fill-rule:evenodd;stroke:none"
         id="path76" />
      <path
         d="m 526.1422,767.1871 v 0 c 0,1.6396 0.9714,2.678 2.6946,2.678 1.2977,0 1.9997,-0.6558 1.9997,-1.8582 0,-1.6397 -1.0779,-2.842 -2.7017,-2.842 -1.2977,0 -1.9926,0.8198 -1.9926,2.0222 z m 3.3966,0.8744 v 0 c 0,0.5466 -0.2695,0.9291 -0.8084,0.9291 -0.8083,0 -1.2977,-0.6012 -1.2977,-1.9128 0,-0.6012 0.2695,-0.9837 0.8084,-0.9837 0.8155,0 1.2977,0.6558 1.2977,1.9674 z"
         style="fill:#009ad7;fill-opacity:1;fill-rule:evenodd;stroke:none"
         id="path78" />
      <path
         d="m 534.2756,768.8917 v 0 h -0.0496 c -0.5389,0 -0.8084,-0.4325 -0.8651,-0.5406 l -0.4326,-2.9201 h -1.2905 l 0.5389,3.3526 -0.5389,0.054 0.0496,0.8652 h 1.6167 l 0.0568,-0.4866 v 0 c 0,0 0.3758,0.6489 1.2409,0.6489 0.4326,0 0.7587,-0.1623 0.7587,-0.1623 l -0.1631,-1.6221 h -0.8651 z"
         style="fill:#009ad7;fill-opacity:1;fill-rule:evenodd;stroke:none"
         id="path80" />
      <path
         d="m 538.5515,768.772 v 0 c -0.1134,0.1093 -0.3829,0.2733 -0.7091,0.2733 -0.3262,0 -0.5389,-0.164 -0.5389,-0.4372 0,-0.6558 1.95,-0.5466 1.95,-1.7489 0,-0.9291 -0.5956,-1.6943 -2.2762,-1.6943 -0.8154,0 -1.3544,0.2186 -1.3544,0.2186 l 0.0568,1.3118 0.8083,0.0546 v -0.6012 c 0.1631,-0.0546 0.383,-0.1093 0.6524,-0.1093 0.5389,0 0.7588,0.2732 0.7588,0.6012 0,0.6012 -1.9004,0.5465 -1.9004,1.8582 0,0.9291 0.7587,1.3663 1.7373,1.3663 0.3758,0 0.7587,-0.1639 1.0282,-0.3279 l 0.1064,0.2733 h 0.6523 l -0.1631,-1.4211 h -0.7587 z"
         style="fill:#009ad7;fill-opacity:1;fill-rule:evenodd;stroke:none"
         id="path82" />
    </g>
  </g>
</svg>
