<?xml version="1.0" encoding="utf-8"?>
<!-- Generator: Adobe Illustrator 22.1.0, SVG Export Plug-In . SVG Version: 6.00 Build 0)  -->
<svg version="1.1" id="Layer_1" xmlns="http://www.w3.org/2000/svg" xmlns:xlink="http://www.w3.org/1999/xlink" x="0px" y="0px"
	 viewBox="0 0 841.9 595.3" enable-background="new 0 0 841.9 595.3" xml:space="preserve">
<g id="XMLID_7_">
	<path id="XMLID_43_" fill="#00A3E0" d="M220.8,512.2h-10.9v-3.9h26.5v3.9h-10.9v32.3h-4.6V512.2z"/>
	<path id="XMLID_45_" fill="#00A3E0" d="M253.4,508.3h20.9v3.9h-16.3v11.4h13.7v3.9h-13.7v13.1h16.8v3.9h-21.4V508.3z"/>
	<path id="XMLID_47_" fill="#00A3E0" d="M290.8,526.4c0-2.9,0.4-5.5,1.2-7.8c0.8-2.3,1.9-4.3,3.4-5.9c1.4-1.6,3.1-2.9,5.1-3.7
		c2-0.9,4.1-1.3,6.4-1.3c2.2,0,4.1,0.5,5.8,1.4c1.7,0.9,3,1.9,4.1,3.1l-2.6,2.9c-1-1-2-1.8-3.2-2.5c-1.2-0.6-2.5-0.9-4.1-0.9
		c-1.7,0-3.3,0.3-4.7,1c-1.4,0.7-2.6,1.7-3.6,2.9c-1,1.3-1.8,2.8-2.3,4.6c-0.6,1.8-0.8,3.8-0.8,6.1c0,2.3,0.3,4.3,0.8,6.2
		c0.5,1.8,1.3,3.4,2.2,4.7c1,1.3,2.1,2.3,3.5,3c1.4,0.7,2.9,1,4.7,1c1.8,0,3.3-0.3,4.6-1c1.3-0.7,2.6-1.7,3.7-3l2.6,2.8
		c-1.4,1.7-3.1,2.9-4.9,3.9c-1.8,0.9-3.9,1.4-6.2,1.4c-2.3,0-4.4-0.4-6.3-1.3c-1.9-0.8-3.6-2.1-5-3.7c-1.4-1.6-2.5-3.6-3.3-5.9
		C291.2,532,290.8,529.4,290.8,526.4z"/>
	<path id="XMLID_74_" fill="#00A3E0" d="M334.9,508.3h4.6v15.2h16.8v-15.2h4.6v36.2h-4.6v-17.1h-16.8v17.1h-4.6V508.3z"/>
	<path id="XMLID_76_" fill="#00A3E0" d="M381.4,508.3h4.7l13.1,22.7l3.9,7.5h0.2c-0.1-1.8-0.2-3.7-0.4-5.7c-0.1-2-0.2-3.9-0.2-5.8
		v-18.7h4.4v36.2h-4.7l-13.1-22.8l-3.9-7.5h-0.2c0.1,1.8,0.3,3.7,0.4,5.6c0.1,1.9,0.2,3.8,0.2,5.7v18.9h-4.4V508.3z"/>
	<path id="XMLID_78_" fill="#00A3E0" d="M441,545.2c-2.3,0-4.4-0.4-6.3-1.3c-1.9-0.9-3.5-2.1-4.9-3.8c-1.4-1.6-2.4-3.6-3.2-6
		c-0.8-2.3-1.1-5-1.1-7.9c0-2.9,0.4-5.5,1.1-7.8c0.8-2.3,1.8-4.3,3.2-5.9c1.4-1.6,3-2.8,4.9-3.7c1.9-0.8,4-1.3,6.3-1.3
		c2.3,0,4.4,0.4,6.3,1.3c1.9,0.9,3.5,2.1,4.9,3.7c1.4,1.6,2.4,3.6,3.2,5.9c0.8,2.3,1.1,4.9,1.1,7.8c0,2.9-0.4,5.5-1.1,7.9
		c-0.8,2.3-1.8,4.3-3.2,6c-1.4,1.6-3,2.9-4.9,3.8C445.3,544.8,443.2,545.2,441,545.2z M441,541.2c1.6,0,3.1-0.3,4.4-1
		c1.3-0.7,2.4-1.7,3.4-3c0.9-1.3,1.7-2.9,2.2-4.7c0.5-1.8,0.8-3.9,0.8-6.2c0-2.2-0.3-4.3-0.8-6.1c-0.5-1.8-1.2-3.3-2.2-4.6
		c-0.9-1.2-2.1-2.2-3.4-2.9c-1.3-0.7-2.8-1-4.4-1c-1.6,0-3.1,0.3-4.4,1c-1.3,0.7-2.4,1.6-3.4,2.9c-0.9,1.3-1.7,2.8-2.2,4.6
		c-0.5,1.8-0.8,3.8-0.8,6.1c0,2.3,0.3,4.3,0.8,6.2c0.5,1.8,1.2,3.4,2.2,4.7c0.9,1.3,2.1,2.3,3.4,3
		C437.9,540.8,439.3,541.2,441,541.2z"/>
	<path id="XMLID_81_" fill="#00A3E0" d="M474.7,508.3h4.6v32.3h15.8v3.9h-20.4V508.3z"/>
	<path id="XMLID_83_" fill="#00A3E0" d="M524,545.2c-2.3,0-4.4-0.4-6.3-1.3c-1.9-0.9-3.5-2.1-4.9-3.8c-1.4-1.6-2.4-3.6-3.2-6
		c-0.8-2.3-1.1-5-1.1-7.9c0-2.9,0.4-5.5,1.1-7.8c0.8-2.3,1.8-4.3,3.2-5.9c1.4-1.6,3-2.8,4.9-3.7c1.9-0.8,4-1.3,6.3-1.3
		c2.3,0,4.4,0.4,6.3,1.3c1.9,0.9,3.5,2.1,4.9,3.7c1.4,1.6,2.4,3.6,3.2,5.9c0.8,2.3,1.1,4.9,1.1,7.8c0,2.9-0.4,5.5-1.1,7.9
		c-0.8,2.3-1.8,4.3-3.2,6c-1.4,1.6-3,2.9-4.9,3.8C528.3,544.8,526.3,545.2,524,545.2z M524,541.2c1.6,0,3.1-0.3,4.4-1
		c1.3-0.7,2.4-1.7,3.4-3c0.9-1.3,1.7-2.9,2.2-4.7c0.5-1.8,0.8-3.9,0.8-6.2c0-2.2-0.3-4.3-0.8-6.1c-0.5-1.8-1.2-3.3-2.2-4.6
		c-0.9-1.2-2.1-2.2-3.4-2.9c-1.3-0.7-2.8-1-4.4-1c-1.6,0-3.1,0.3-4.4,1c-1.3,0.7-2.4,1.6-3.4,2.9c-0.9,1.3-1.7,2.8-2.2,4.6
		c-0.5,1.8-0.8,3.8-0.8,6.1c0,2.3,0.3,4.3,0.8,6.2c0.5,1.8,1.2,3.4,2.2,4.7c0.9,1.3,2.1,2.3,3.4,3
		C520.9,540.8,522.4,541.2,524,541.2z"/>
	<path id="XMLID_86_" fill="#00A3E0" d="M555.7,526.4c0-2.9,0.4-5.5,1.2-7.8c0.8-2.3,2-4.3,3.5-5.9c1.5-1.6,3.2-2.9,5.3-3.7
		c2-0.9,4.2-1.3,6.7-1.3c2.5,0,4.6,0.5,6.3,1.4c1.7,0.9,3,2,4.1,3.1l-2.6,2.9c-0.9-1-2-1.8-3.2-2.4c-1.2-0.6-2.7-1-4.6-1
		c-1.8,0-3.5,0.3-5,1c-1.5,0.7-2.7,1.7-3.8,2.9c-1,1.3-1.8,2.8-2.4,4.6c-0.6,1.8-0.9,3.8-0.9,6.1c0,2.3,0.3,4.3,0.8,6.2
		c0.5,1.8,1.3,3.4,2.3,4.7c1,1.3,2.3,2.3,3.8,3c1.5,0.7,3.2,1,5.2,1c1.3,0,2.5-0.2,3.7-0.6c1.2-0.4,2.1-0.9,2.8-1.6v-9.4h-7.7v-3.8
		h11.9V541c-1.2,1.2-2.7,2.2-4.7,3c-1.9,0.8-4.1,1.2-6.5,1.2c-2.4,0-4.6-0.4-6.6-1.3c-2-0.8-3.7-2.1-5.1-3.7s-2.6-3.6-3.4-5.9
		C556.1,532,555.7,529.4,555.7,526.4z"/>
	<path id="XMLID_106_" fill="#00A3E0" d="M608.1,530.5l-10.9-22.2h4.9l4.7,10.2c0.6,1.3,1.2,2.6,1.7,3.9c0.6,1.3,1.1,2.6,1.8,4h0.2
		c0.6-1.4,1.3-2.7,1.9-4c0.6-1.3,1.2-2.6,1.8-3.9l4.6-10.2h4.8l-10.9,22.2v14h-4.6V530.5z"/>
</g>
<g id="XMLID_108_">
	<g id="XMLID_109_">
		<path id="XMLID_120_" fill="#54585A" d="M623.1,394.8c-25.7,0-45.9,19.8-45.9,45.7c0,25.9,20.2,45.7,45.9,45.7
			c25.7,0,45.9-19.8,45.9-45.7C668.9,414.6,648.7,394.8,623.1,394.8 M623.1,410.5c16.3,0,29.4,13.6,29.4,29.9
			c0,16.1-13,29.9-29.4,29.9c-16.3,0-29.3-13.8-29.3-29.9C593.7,424.1,606.7,410.5,623.1,410.5"/>
		<path id="XMLID_117_" fill="#54585A" d="M410.8,470.3c-16.3,0-29.3-13.8-29.3-29.9c0-16.3,13-29.9,29.3-29.9
			c16.3,0,29.4,13.6,29.4,29.9C440.2,456.6,427.2,470.3,410.8,470.3 M439.9,397.3v9.8h-0.6c-6.7-7.5-17.6-12.4-28.9-12.4
			c-25.7,0-45.9,19.8-45.9,45.7c0,25.9,20.2,45.7,45.9,45.7c11.3,0,22.2-5,28.9-12.4h0.6v9.6h16.5v-86H439.9z"/>
		<path id="XMLID_114_" fill="#54585A" d="M516.9,470.3c-16.3,0-29.4-13.8-29.4-29.9c0-16.3,13-29.9,29.4-29.9
			c16.3,0,29.4,13.6,29.4,29.9C546.3,456.6,533.3,470.3,516.9,470.3 M546,356.1v51h-0.6c-6.7-7.5-17.6-12.4-28.9-12.4
			c-25.7,0-45.8,19.8-45.8,45.7c0,25.9,20.2,45.7,45.8,45.7c11.3,0,22.2-5,28.9-12.4h0.6v9.6h16.5V356.1H546z"/>
		<path id="XMLID_113_" fill="#54585A" d="M349.5,460.9c-5.4,5.8-12.9,9.5-21.4,9.5c-16.3,0-29.3-13.8-29.3-29.9
			c0-16.3,13-29.9,29.3-29.9c8.5,0,16,3.7,21.4,9.5l8-15c-7.9-6.5-18.1-10.3-29.3-10.3c-25.7,0-45.9,19.8-45.9,45.7
			c0,25.9,20.2,45.7,45.9,45.7c11.3,0,21.5-3.8,29.3-10.3L349.5,460.9z"/>
		<path id="XMLID_110_" fill="#54585A" d="M223.8,394.8c-25.7,0-45.8,19.8-45.8,45.7c0,25.9,20.2,45.7,45.8,45.7
			c25.7,0,45.9-19.8,45.9-45.7C269.7,414.6,249.5,394.8,223.8,394.8 M223.8,410.5c16.4,0,29.4,13.6,29.4,29.9
			c0,16.1-13,29.9-29.4,29.9c-16.3,0-29.3-13.8-29.3-29.9C194.5,424.1,207.5,410.5,223.8,410.5"/>
	</g>
</g>
<path id="XMLID_73_" fill="#A8AD00" d="M544.6,260.9c0,0-0.1,0.1-0.2,0.2c-0.1,0-0.1,0.1-0.2,0.2c-0.2,0.1-0.4,0.3-0.7,0.5
	c0,0-0.1,0.1-0.1,0.1c-0.3,0.2-0.7,0.5-1.1,0.8c0,0,0,0-0.1,0c-0.4,0.3-0.9,0.6-1.4,1c-0.1,0.1-0.2,0.1-0.3,0.2
	c-0.4,0.3-0.9,0.6-1.4,0.9c-0.3,0.2-0.5,0.3-0.8,0.5c-0.3,0.2-0.7,0.4-1.1,0.7c-0.5,0.3-1.1,0.7-1.7,1c-0.1,0.1-0.3,0.1-0.4,0.2
	c-7.8,4.4-20.1,9.6-35.5,10H471l-95.3,0l0.1,0l-0.1,0c0,0,2.7,4.9,14.1,24.2c14.2,24.1,37,31.4,37,31.4h-19l0,0h31.1h44.1
	c12.5,0,24-6.7,30.2-17.5l22.1-38.3L544.6,260.9C544.7,260.8,544.6,260.8,544.6,260.9z"/>
<path id="XMLID_72_" fill="#00A3E0" d="M573.1,177l-31.5-54.6l0,0.1c0.1,0.3,5.3,22.3-8.4,47.9l-14.3,24.1L471,277.2h28.8
	c15.4-0.4,27.7-5.5,35.5-10c0.1-0.1,0.3-0.1,0.4-0.2c0.6-0.3,1.1-0.7,1.7-1c0.4-0.2,0.7-0.4,1.1-0.7c0.3-0.2,0.5-0.3,0.8-0.5
	c0.5-0.3,1-0.6,1.4-0.9c0.1-0.1,0.2-0.1,0.3-0.2c0.5-0.4,1-0.7,1.4-1c0,0,0,0,0.1,0c0.4-0.3,0.8-0.6,1.1-0.8c0,0,0.1-0.1,0.1-0.1
	c0.3-0.2,0.5-0.4,0.7-0.5c0.1-0.1,0.1-0.1,0.2-0.2c0.1-0.1,0.2-0.2,0.2-0.2c0,0,0.1-0.1,0.1-0.1l6.4-10.7l22-38.2
	C579.3,201.1,579.3,187.8,573.1,177z"/>
<path id="XMLID_71_" fill="#00A3E0" d="M347.8,111.8c-26.7,0-44.4,15.4-45.8,16.7l0,0l-6.1,10.4l-22,38.2c-6.2,10.8-6.2,24.1,0,34.9
	l22.1,38.3l9.4,16.3c0,0-1.4-6.6-0.7-16.5c0.6-8.7,3-20,9.4-31.5l61.6-106.7l0-0.1L347.8,111.8z"/>
<path id="XMLID_70_" fill="#54585A" d="M389.8,301.4c-11.4-19.3-14.1-24.2-14.1-24.2L328,194.5L314,218.6
	c-6.5,11.5-8.8,22.7-9.4,31.5c-0.7,9.9,0.7,16.5,0.7,16.5l-9.4-16.3l0,0l15.6,26.9l22,38.2c6.2,10.8,17.8,17.5,30.2,17.5h44h19
	C426.7,332.8,404,325.5,389.8,301.4z"/>
<path id="XMLID_69_" fill="#54585A" d="M541.6,122.5l-6.2-10.7l-22-38.2c-6.2-10.8-17.8-17.5-30.2-17.5l-62.6,0.1c0,0-0.1,0-0.2,0
	c1,0.3,22.9,7.7,36.8,31.4c11.4,19.4,14.1,24.3,14.1,24.3l47.7,82.6l14.3-24.1C546.9,144.8,541.7,122.8,541.6,122.5z"/>
<path id="XMLID_12_" fill="#A8AD00" d="M457.1,87.5c-13.9-23.6-35.8-31-36.8-31.4H408H364c-12.5,0-24,6.7-30.2,17.5l-22.1,38.3
	l-9.7,16.5c1.4-1.3,19.1-16.7,45.8-16.7l27.9,0.1l0,0.1c0.1,0,0.2,0,0.2,0l0.1-0.1l95.3,0C471.2,111.8,468.5,106.9,457.1,87.5z"/>
<g>
	<path fill="#54585A" d="M677.9,414c-1.2,0-2.4-0.2-3.4-0.7c-1.1-0.5-2-1.1-2.9-1.9c-0.8-0.8-1.5-1.8-1.9-3
		c-0.5-1.2-0.7-2.5-0.7-3.9c0-1.4,0.2-2.8,0.7-3.9c0.5-1.2,1.1-2.2,1.9-3c0.8-0.8,1.8-1.5,2.9-1.9c1.1-0.5,2.2-0.7,3.4-0.7
		c1.2,0,2.4,0.2,3.5,0.7c1.1,0.5,2,1.1,2.9,1.9c0.8,0.8,1.4,1.8,1.9,3c0.5,1.2,0.7,2.5,0.7,3.9c0,1.4-0.2,2.7-0.7,3.9
		c-0.5,1.2-1.1,2.2-1.9,3c-0.8,0.8-1.8,1.5-2.9,1.9C680.2,413.7,679.1,414,677.9,414z M677.9,412.5c1,0,2-0.2,2.9-0.6
		c0.9-0.4,1.7-1,2.4-1.7c0.7-0.7,1.2-1.5,1.6-2.5c0.4-1,0.6-2.1,0.6-3.2c0-1.2-0.2-2.3-0.6-3.3c-0.4-1-0.9-1.9-1.6-2.6
		c-0.7-0.7-1.4-1.3-2.4-1.7c-0.9-0.4-1.9-0.6-2.9-0.6c-1.1,0-2,0.2-2.9,0.6c-0.9,0.4-1.7,1-2.3,1.7c-0.7,0.7-1.2,1.6-1.6,2.6
		c-0.4,1-0.6,2.1-0.6,3.3c0,1.2,0.2,2.3,0.6,3.2c0.4,1,0.9,1.8,1.6,2.5c0.7,0.7,1.4,1.3,2.3,1.7
		C675.8,412.3,676.8,412.5,677.9,412.5z M674.5,399.2h3.4c0.5,0,1,0,1.4,0.1c0.4,0.1,0.8,0.3,1.2,0.5c0.4,0.2,0.6,0.6,0.9,1
		c0.2,0.4,0.3,0.9,0.3,1.5c0,0.6-0.2,1.2-0.6,1.7c-0.4,0.5-0.8,0.9-1.4,1l2.4,4.2h-1.8l-1.9-3.7h-2.3v3.7h-1.6V399.2z M677.5,404.3
		c0.8,0,1.4-0.1,1.8-0.4c0.5-0.3,0.7-0.7,0.7-1.4c0-0.6-0.2-1-0.5-1.4c-0.3-0.3-1-0.5-1.8-0.5h-1.6v3.7H677.5z"/>
</g>
</svg>
