<svg id="svg" xmlns="http://www.w3.org/2000/svg" xmlns:xlink="http://www.w3.org/1999/xlink" width="400" height="165.380374862183" viewBox="0, 0, 400,165.380374862183"><g id="svgg"><path id="path0" d="M64.167 79.911 C 64.167 112.429,64.171 112.824,64.493 112.996 C 64.707 113.111,66.681 113.156,70.202 113.127 L 75.583 113.083 75.625 84.875 L 75.668 56.667 80.459 56.672 C 84.408 56.676,85.307 56.720,85.574 56.922 C 85.809 57.100,86.363 57.167,87.615 57.167 C 88.650 57.167,89.333 57.233,89.333 57.333 C 89.333 57.425,89.746 57.500,90.250 57.500 C 90.954 57.500,91.167 57.558,91.167 57.750 C 91.167 57.906,91.324 58.000,91.583 58.000 C 91.813 58.000,92.000 58.061,92.000 58.135 C 92.000 58.277,93.157 58.833,93.455 58.833 C 93.552 58.833,93.674 58.946,93.727 59.083 C 93.780 59.221,93.981 59.333,94.173 59.333 C 94.547 59.333,95.000 59.692,95.000 59.988 C 95.000 60.086,95.112 60.167,95.250 60.167 C 95.388 60.167,95.500 60.279,95.500 60.417 C 95.500 60.554,95.580 60.667,95.679 60.667 C 95.974 60.667,96.333 61.120,96.333 61.493 C 96.333 61.686,96.446 61.887,96.583 61.940 C 96.721 61.992,96.833 62.215,96.833 62.434 C 96.833 62.678,96.931 62.833,97.083 62.833 C 97.264 62.833,97.333 63.019,97.333 63.500 C 97.333 63.867,97.408 64.167,97.500 64.167 C 97.594 64.167,97.667 64.639,97.667 65.250 C 97.667 66.102,97.720 66.333,97.917 66.333 C 98.118 66.333,98.167 66.593,98.167 67.667 C 98.167 68.741,98.118 69.000,97.917 69.000 C 97.718 69.000,97.667 69.241,97.667 70.167 C 97.667 70.833,97.595 71.333,97.500 71.333 C 97.408 71.333,97.333 71.596,97.333 71.917 C 97.333 72.324,97.258 72.500,97.083 72.500 C 96.917 72.500,96.833 72.667,96.833 73.000 C 96.833 73.275,96.748 73.500,96.643 73.500 C 96.363 73.500,96.011 74.028,96.005 74.458 C 96.002 74.665,95.915 74.833,95.811 74.833 C 95.708 74.833,95.375 75.096,95.073 75.417 C 94.770 75.737,94.365 76.000,94.173 76.000 C 93.980 76.000,93.780 76.112,93.727 76.250 C 93.674 76.387,93.487 76.500,93.310 76.500 C 93.134 76.500,92.946 76.612,92.894 76.750 C 92.841 76.887,92.618 77.000,92.399 77.000 C 92.179 77.000,92.000 77.075,92.000 77.167 C 92.000 77.258,91.735 77.333,91.411 77.333 C 91.042 77.333,90.787 77.426,90.727 77.583 C 90.660 77.758,90.388 77.833,89.824 77.833 C 89.284 77.833,88.971 77.915,88.879 78.080 C 88.764 78.284,88.105 78.334,85.079 78.372 L 81.417 78.417 81.417 83.167 L 81.417 87.917 86.208 87.961 C 90.397 88.000,91.000 87.973,91.000 87.753 C 91.000 87.548,91.253 87.500,92.333 87.500 C 93.407 87.500,93.667 87.451,93.667 87.250 C 93.667 87.058,93.880 87.000,94.583 87.000 C 95.087 87.000,95.500 86.925,95.500 86.833 C 95.500 86.742,95.840 86.667,96.255 86.667 C 96.773 86.667,97.041 86.588,97.106 86.417 C 97.161 86.274,97.410 86.167,97.684 86.167 C 97.950 86.167,98.167 86.092,98.167 86.000 C 98.167 85.908,98.340 85.833,98.551 85.833 C 98.763 85.833,99.082 85.723,99.260 85.589 C 99.438 85.454,99.752 85.342,99.958 85.339 C 100.178 85.336,100.333 85.230,100.333 85.083 C 100.333 84.928,100.491 84.833,100.750 84.833 C 100.979 84.833,101.167 84.758,101.167 84.667 C 101.167 84.575,101.279 84.500,101.417 84.500 C 101.554 84.500,101.667 84.387,101.667 84.250 C 101.667 84.094,101.824 84.000,102.083 84.000 C 102.343 84.000,102.500 83.906,102.500 83.750 C 102.500 83.612,102.585 83.500,102.689 83.500 C 102.793 83.500,103.052 83.313,103.265 83.083 C 103.477 82.854,103.736 82.667,103.839 82.667 C 104.130 82.667,105.667 81.070,105.667 80.768 C 105.667 80.621,105.742 80.500,105.833 80.500 C 105.925 80.500,106.000 80.387,106.000 80.250 C 106.000 80.112,106.112 80.000,106.250 80.000 C 106.388 80.000,106.500 79.896,106.500 79.768 C 106.500 79.640,106.612 79.492,106.750 79.440 C 106.888 79.387,107.000 79.191,107.000 79.005 C 107.000 78.819,107.075 78.667,107.167 78.667 C 107.258 78.667,107.333 78.479,107.333 78.250 C 107.333 77.991,107.428 77.833,107.583 77.833 C 107.735 77.833,107.833 77.678,107.833 77.437 C 107.833 77.219,107.946 76.947,108.083 76.833 C 108.221 76.719,108.333 76.410,108.333 76.146 C 108.333 75.882,108.408 75.667,108.500 75.667 C 108.592 75.667,108.667 75.375,108.667 75.018 C 108.667 74.595,108.754 74.336,108.917 74.273 C 109.108 74.200,109.167 73.886,109.167 72.940 C 109.167 71.994,109.226 71.680,109.417 71.606 C 109.629 71.525,109.667 70.902,109.667 67.422 C 109.667 63.899,109.632 63.333,109.417 63.333 C 109.220 63.333,109.167 63.102,109.167 62.250 C 109.167 61.398,109.113 61.167,108.917 61.167 C 108.725 61.167,108.667 60.954,108.667 60.250 C 108.667 59.746,108.592 59.333,108.500 59.333 C 108.408 59.333,108.333 59.146,108.333 58.917 C 108.333 58.657,108.239 58.500,108.083 58.500 C 107.917 58.500,107.833 58.333,107.833 58.000 C 107.833 57.667,107.750 57.500,107.583 57.500 C 107.428 57.500,107.333 57.343,107.333 57.083 C 107.333 56.854,107.258 56.667,107.167 56.667 C 107.075 56.667,107.000 56.479,107.000 56.250 C 107.000 55.991,106.906 55.833,106.750 55.833 C 106.612 55.833,106.500 55.721,106.500 55.583 C 106.500 55.446,106.388 55.333,106.250 55.333 C 106.108 55.333,106.000 55.184,106.000 54.987 C 106.000 54.628,105.160 53.667,104.846 53.667 C 104.747 53.667,104.667 53.586,104.667 53.487 C 104.667 53.173,103.706 52.333,103.346 52.333 C 103.150 52.333,103.000 52.225,103.000 52.083 C 103.000 51.946,102.888 51.833,102.750 51.833 C 102.612 51.833,102.500 51.721,102.500 51.583 C 102.500 51.446,102.388 51.333,102.250 51.333 C 102.112 51.333,102.000 51.258,102.000 51.167 C 102.000 51.075,101.813 51.000,101.583 51.000 C 101.324 51.000,101.167 50.906,101.167 50.750 C 101.167 50.597,101.011 50.500,100.768 50.500 C 100.548 50.500,100.326 50.387,100.273 50.250 C 100.220 50.112,100.025 50.000,99.839 50.000 C 99.652 50.000,99.500 49.925,99.500 49.833 C 99.500 49.742,99.275 49.667,99.000 49.667 C 98.667 49.667,98.500 49.583,98.500 49.417 C 98.500 49.236,98.315 49.167,97.833 49.167 C 97.352 49.167,97.167 49.097,97.167 48.917 C 97.167 48.761,97.009 48.667,96.750 48.667 C 96.521 48.667,96.333 48.592,96.333 48.500 C 96.333 48.408,95.966 48.333,95.518 48.333 C 94.947 48.333,94.674 48.258,94.606 48.083 C 94.535 47.896,94.236 47.833,93.422 47.833 C 92.807 47.833,92.333 47.761,92.333 47.667 C 92.333 47.569,91.778 47.500,91.000 47.500 C 89.926 47.500,89.667 47.451,89.667 47.250 C 89.667 47.030,88.139 47.000,76.917 47.000 L 64.167 47.000 64.167 79.911 M117.167 52.250 L 117.167 57.500 122.667 57.500 L 128.167 57.500 128.167 52.250 L 128.167 47.000 122.667 47.000 L 117.167 47.000 117.167 52.250 M324.333 79.883 C 324.333 105.237,324.379 112.812,324.533 112.967 C 324.681 113.114,326.133 113.167,330.033 113.167 L 335.333 113.167 335.333 80.083 L 335.333 47.000 329.833 47.000 L 324.333 47.000 324.333 79.883 M249.833 53.417 C 249.833 53.620,249.556 53.667,248.333 53.667 C 247.444 53.667,246.833 53.735,246.833 53.833 C 246.833 53.934,246.137 54.000,245.078 54.000 C 243.672 54.000,243.304 54.050,243.227 54.250 C 243.152 54.446,242.813 54.500,241.649 54.500 L 240.167 54.500 240.167 79.339 C 240.167 101.264,240.196 104.188,240.417 104.273 C 240.592 104.340,240.667 104.613,240.667 105.184 C 240.667 105.633,240.742 106.000,240.833 106.000 C 240.925 106.000,241.000 106.188,241.000 106.417 C 241.000 106.676,241.094 106.833,241.250 106.833 C 241.417 106.833,241.500 107.000,241.500 107.333 C 241.500 107.667,241.583 107.833,241.750 107.833 C 241.906 107.833,242.000 107.991,242.000 108.250 C 242.000 108.479,242.075 108.667,242.167 108.667 C 242.258 108.667,242.333 108.779,242.333 108.917 C 242.333 109.054,242.414 109.167,242.512 109.167 C 242.743 109.167,243.167 109.591,243.167 109.821 C 243.167 109.920,243.245 110.000,243.341 110.000 C 243.437 110.000,243.690 110.188,243.902 110.417 C 244.114 110.646,244.448 110.833,244.644 110.833 C 244.849 110.833,245.000 110.939,245.000 111.083 C 245.000 111.235,245.155 111.333,245.396 111.333 C 245.614 111.333,245.886 111.446,246.000 111.583 C 246.114 111.721,246.423 111.833,246.687 111.833 C 246.951 111.833,247.167 111.908,247.167 112.000 C 247.167 112.092,247.579 112.167,248.083 112.167 C 248.787 112.167,249.000 112.225,249.000 112.417 C 249.000 112.627,249.380 112.667,251.417 112.667 C 253.462 112.667,253.833 112.705,253.833 112.919 C 253.833 113.140,254.657 113.165,260.625 113.127 L 267.417 113.083 267.461 108.708 L 267.506 104.333 261.086 104.333 C 255.491 104.333,254.667 104.301,254.667 104.083 C 254.667 103.894,254.463 103.833,253.833 103.833 C 253.375 103.833,253.000 103.763,253.000 103.676 C 253.000 103.590,252.775 103.386,252.500 103.223 C 252.225 103.061,252.000 102.832,252.000 102.714 C 252.000 102.596,251.933 102.500,251.851 102.500 C 251.770 102.500,251.656 102.313,251.598 102.083 C 251.541 101.854,251.420 101.667,251.330 101.667 C 251.225 101.667,251.167 96.506,251.167 87.083 L 251.167 72.500 259.333 72.500 L 267.500 72.500 267.500 68.083 L 267.500 63.667 259.333 63.667 L 251.167 63.667 251.167 58.417 L 251.167 53.167 250.500 53.167 C 250.019 53.167,249.833 53.236,249.833 53.417 M293.060 63.083 C 292.983 63.285,292.600 63.333,291.066 63.333 C 289.911 63.333,289.167 63.399,289.167 63.500 C 289.167 63.592,288.789 63.667,288.328 63.667 C 287.736 63.667,287.461 63.740,287.394 63.917 C 287.326 64.092,287.053 64.167,286.482 64.167 C 285.868 64.167,285.667 64.229,285.667 64.417 C 285.667 64.583,285.500 64.667,285.167 64.667 C 284.892 64.667,284.667 64.742,284.667 64.833 C 284.667 64.925,284.479 65.000,284.250 65.000 C 283.991 65.000,283.833 65.094,283.833 65.250 C 283.833 65.406,283.676 65.500,283.417 65.500 C 283.157 65.500,283.000 65.594,283.000 65.750 C 283.000 65.917,282.833 66.000,282.500 66.000 C 282.225 66.000,282.000 66.075,282.000 66.167 C 282.000 66.258,281.848 66.333,281.661 66.333 C 281.475 66.333,281.280 66.446,281.227 66.583 C 281.174 66.721,281.027 66.833,280.899 66.833 C 280.771 66.833,280.667 66.914,280.667 67.012 C 280.667 67.279,280.227 67.667,279.923 67.667 C 279.776 67.667,279.613 67.779,279.560 67.917 C 279.508 68.054,279.360 68.167,279.232 68.167 C 279.104 68.167,279.000 68.279,279.000 68.417 C 279.000 68.554,278.920 68.667,278.821 68.667 C 278.591 68.667,278.167 69.091,278.167 69.321 C 278.167 69.420,278.054 69.500,277.917 69.500 C 277.761 69.500,277.667 69.657,277.667 69.917 C 277.667 70.176,277.572 70.333,277.417 70.333 C 277.279 70.333,277.167 70.428,277.167 70.544 C 277.167 70.660,276.979 70.895,276.750 71.067 C 276.512 71.246,276.333 71.548,276.333 71.773 C 276.333 71.990,276.248 72.167,276.143 72.167 C 275.863 72.167,275.511 72.695,275.505 73.125 C 275.502 73.345,275.397 73.500,275.250 73.500 C 275.108 73.500,275.000 73.649,275.000 73.845 C 275.000 74.035,274.887 74.303,274.750 74.440 C 274.612 74.578,274.500 74.910,274.500 75.179 C 274.500 75.447,274.425 75.667,274.333 75.667 C 274.242 75.667,274.167 75.967,274.167 76.333 C 274.167 76.815,274.097 77.000,273.917 77.000 C 273.737 77.000,273.667 77.183,273.667 77.649 C 273.667 78.072,273.580 78.331,273.417 78.394 C 273.225 78.467,273.167 78.783,273.167 79.745 C 273.167 80.470,273.096 81.000,273.000 81.000 C 272.892 81.000,272.833 83.444,272.833 88.000 C 272.833 91.983,272.897 95.000,272.982 95.000 C 273.063 95.000,273.159 95.576,273.195 96.279 C 273.236 97.089,273.334 97.584,273.463 97.627 C 273.577 97.665,273.667 97.981,273.667 98.347 C 273.667 98.816,273.737 99.000,273.917 99.000 C 274.097 99.000,274.167 99.185,274.167 99.667 C 274.167 100.033,274.242 100.333,274.333 100.333 C 274.425 100.333,274.500 100.506,274.500 100.718 C 274.500 100.930,274.610 101.249,274.745 101.426 C 274.879 101.604,274.992 101.919,274.995 102.125 C 274.998 102.345,275.103 102.500,275.250 102.500 C 275.406 102.500,275.500 102.657,275.500 102.917 C 275.500 103.146,275.575 103.333,275.667 103.333 C 275.758 103.333,275.833 103.446,275.833 103.583 C 275.833 103.721,275.946 103.833,276.083 103.833 C 276.239 103.833,276.333 103.991,276.333 104.250 C 276.333 104.509,276.428 104.667,276.583 104.667 C 276.721 104.667,276.833 104.779,276.833 104.917 C 276.833 105.054,276.908 105.167,277.000 105.167 C 277.092 105.167,277.167 105.279,277.167 105.417 C 277.167 105.554,277.279 105.667,277.417 105.667 C 277.554 105.667,277.667 105.806,277.667 105.977 C 277.667 106.147,277.854 106.427,278.083 106.600 C 278.313 106.772,278.500 107.007,278.500 107.123 C 278.500 107.239,278.612 107.333,278.750 107.333 C 278.887 107.333,279.000 107.446,279.000 107.583 C 279.000 107.721,279.112 107.833,279.250 107.833 C 279.387 107.833,279.500 107.908,279.500 108.000 C 279.500 108.092,279.688 108.167,279.917 108.167 C 280.146 108.167,280.333 108.247,280.333 108.346 C 280.333 108.660,281.294 109.500,281.654 109.500 C 281.850 109.500,282.000 109.608,282.000 109.750 C 282.000 109.888,282.112 110.000,282.250 110.000 C 282.387 110.000,282.500 110.061,282.500 110.135 C 282.500 110.339,283.719 110.833,284.223 110.833 C 284.506 110.833,284.667 110.924,284.667 111.083 C 284.667 111.248,284.831 111.333,285.149 111.333 C 285.424 111.333,285.672 111.441,285.727 111.583 C 285.782 111.728,286.032 111.833,286.318 111.833 C 286.591 111.833,286.860 111.908,286.917 112.000 C 286.973 112.092,287.390 112.167,287.843 112.167 C 288.464 112.167,288.667 112.228,288.667 112.417 C 288.667 112.621,288.946 112.667,290.179 112.667 C 291.309 112.667,291.754 112.731,291.944 112.920 C 292.157 113.133,292.722 113.166,295.474 113.128 L 298.750 113.083 298.794 108.458 L 298.839 103.833 295.253 103.833 C 292.176 103.833,291.667 103.798,291.667 103.583 C 291.667 103.403,291.481 103.333,291.000 103.333 C 290.633 103.333,290.333 103.258,290.333 103.167 C 290.333 103.075,290.146 103.000,289.917 103.000 C 289.657 103.000,289.500 102.906,289.500 102.750 C 289.500 102.594,289.343 102.500,289.083 102.500 C 288.854 102.500,288.667 102.425,288.667 102.333 C 288.667 102.242,288.554 102.167,288.417 102.167 C 288.279 102.167,288.167 102.054,288.167 101.917 C 288.167 101.779,288.067 101.667,287.945 101.667 C 287.823 101.667,287.623 101.479,287.500 101.250 C 287.377 101.021,287.177 100.833,287.055 100.833 C 286.933 100.833,286.833 100.721,286.833 100.583 C 286.833 100.446,286.734 100.333,286.611 100.333 C 286.489 100.333,286.289 100.146,286.167 99.917 C 286.044 99.688,285.844 99.500,285.722 99.500 C 285.600 99.500,285.500 99.388,285.500 99.250 C 285.500 99.112,285.425 99.000,285.333 99.000 C 285.242 99.000,285.167 98.813,285.167 98.583 C 285.167 98.324,285.072 98.167,284.917 98.167 C 284.750 98.167,284.667 98.000,284.667 97.667 C 284.667 97.333,284.583 97.167,284.417 97.167 C 284.242 97.167,284.167 96.991,284.167 96.583 C 284.167 96.263,284.092 96.000,284.000 96.000 C 283.908 96.000,283.833 95.700,283.833 95.333 C 283.833 94.852,283.764 94.667,283.583 94.667 C 283.382 94.667,283.333 94.407,283.333 93.333 C 283.333 92.259,283.285 92.000,283.083 92.000 C 282.868 92.000,282.833 91.444,282.833 88.000 C 282.833 84.556,282.868 84.000,283.083 84.000 C 283.285 84.000,283.333 83.741,283.333 82.667 C 283.333 81.593,283.382 81.333,283.583 81.333 C 283.764 81.333,283.833 81.148,283.833 80.667 C 283.833 80.300,283.908 80.000,284.000 80.000 C 284.092 80.000,284.167 79.700,284.167 79.333 C 284.167 78.852,284.236 78.667,284.417 78.667 C 284.572 78.667,284.667 78.509,284.667 78.250 C 284.667 77.991,284.761 77.833,284.917 77.833 C 285.054 77.833,285.167 77.721,285.167 77.583 C 285.167 77.446,285.242 77.333,285.333 77.333 C 285.425 77.333,285.500 77.146,285.500 76.917 C 285.500 76.657,285.594 76.500,285.750 76.500 C 285.887 76.500,286.000 76.433,286.000 76.352 C 286.000 76.195,287.454 74.667,287.603 74.667 C 287.760 74.667,288.167 74.195,288.167 74.012 C 288.167 73.914,288.346 73.833,288.566 73.833 C 288.785 73.833,289.008 73.721,289.060 73.583 C 289.113 73.446,289.304 73.333,289.485 73.333 C 289.666 73.333,289.860 73.258,289.917 73.167 C 289.973 73.075,290.203 73.000,290.427 73.000 C 290.677 73.000,290.833 72.904,290.833 72.750 C 290.833 72.569,291.019 72.500,291.500 72.500 C 291.867 72.500,292.167 72.425,292.167 72.333 C 292.167 72.226,293.833 72.167,296.833 72.167 C 299.833 72.167,301.500 72.226,301.500 72.333 C 301.500 72.432,302.111 72.500,302.999 72.500 L 304.499 72.500 304.541 92.792 L 304.583 113.083 310.042 113.127 L 315.500 113.171 315.500 89.671 C 315.500 63.495,315.591 65.500,314.397 65.500 C 314.081 65.500,313.830 65.399,313.773 65.250 C 313.705 65.074,313.430 65.000,312.839 65.000 C 312.377 65.000,312.000 64.925,312.000 64.833 C 312.000 64.740,311.534 64.667,310.934 64.667 C 310.141 64.667,309.844 64.603,309.773 64.417 C 309.698 64.220,309.356 64.167,308.172 64.167 C 306.945 64.167,306.667 64.120,306.667 63.917 C 306.667 63.710,306.361 63.667,304.917 63.667 C 303.861 63.667,303.167 63.601,303.167 63.500 C 303.167 63.394,301.944 63.333,299.833 63.333 C 296.981 63.333,296.500 63.297,296.500 63.083 C 296.500 62.878,296.203 62.833,294.828 62.833 C 293.496 62.833,293.137 62.884,293.060 63.083 M117.208 88.373 L 117.250 113.083 122.667 113.083 L 128.083 113.083 128.083 88.417 L 128.083 63.750 122.624 63.706 L 117.166 63.662 117.208 88.373 M134.833 67.665 L 134.833 71.667 137.250 71.667 L 139.667 71.667 139.667 72.333 C 139.667 72.700,139.742 73.000,139.833 73.000 C 139.925 73.000,140.000 73.300,140.000 73.667 C 140.000 74.148,140.069 74.333,140.250 74.333 C 140.431 74.333,140.500 74.519,140.500 75.000 C 140.500 75.481,140.569 75.667,140.750 75.667 C 140.931 75.667,141.000 75.852,141.000 76.333 C 141.000 76.700,141.075 77.000,141.167 77.000 C 141.258 77.000,141.333 77.265,141.333 77.589 C 141.333 77.958,141.426 78.213,141.583 78.273 C 141.738 78.332,141.833 78.586,141.833 78.934 C 141.833 79.326,141.910 79.500,142.083 79.500 C 142.264 79.500,142.333 79.685,142.333 80.167 C 142.333 80.533,142.408 80.833,142.500 80.833 C 142.592 80.833,142.667 81.133,142.667 81.500 C 142.667 81.981,142.736 82.167,142.917 82.167 C 143.097 82.167,143.167 82.352,143.167 82.833 C 143.167 83.200,143.242 83.500,143.333 83.500 C 143.425 83.500,143.500 83.765,143.500 84.089 C 143.500 84.458,143.593 84.713,143.750 84.773 C 143.913 84.836,144.000 85.095,144.000 85.518 C 144.000 85.983,144.071 86.167,144.250 86.167 C 144.431 86.167,144.500 86.352,144.500 86.833 C 144.500 87.200,144.575 87.500,144.667 87.500 C 144.758 87.500,144.833 87.765,144.833 88.089 C 144.833 88.458,144.926 88.713,145.083 88.773 C 145.246 88.836,145.333 89.095,145.333 89.518 C 145.333 89.983,145.404 90.167,145.583 90.167 C 145.764 90.167,145.833 90.352,145.833 90.833 C 145.833 91.200,145.908 91.500,146.000 91.500 C 146.092 91.500,146.167 91.765,146.167 92.089 C 146.167 92.458,146.260 92.713,146.417 92.773 C 146.580 92.836,146.667 93.095,146.667 93.518 C 146.667 93.983,146.737 94.167,146.917 94.167 C 147.097 94.167,147.167 94.352,147.167 94.833 C 147.167 95.200,147.242 95.500,147.333 95.500 C 147.425 95.500,147.500 95.765,147.500 96.089 C 147.500 96.458,147.593 96.713,147.750 96.773 C 147.905 96.832,148.000 97.086,148.000 97.440 C 148.000 97.793,148.095 98.047,148.250 98.106 C 148.403 98.165,148.500 98.418,148.500 98.758 C 148.500 99.064,148.575 99.360,148.667 99.417 C 148.758 99.473,148.833 99.778,148.833 100.093 C 148.833 100.492,148.910 100.667,149.083 100.667 C 149.264 100.667,149.333 100.852,149.333 101.333 C 149.333 101.815,149.403 102.000,149.583 102.000 C 149.764 102.000,149.833 102.185,149.833 102.667 C 149.833 103.033,149.908 103.333,150.000 103.333 C 150.092 103.333,150.167 103.598,150.167 103.922 C 150.167 104.291,150.260 104.546,150.417 104.606 C 150.580 104.669,150.667 104.928,150.667 105.351 C 150.667 105.708,150.742 106.000,150.833 106.000 C 150.925 106.000,151.000 106.220,151.000 106.488 C 151.000 106.757,151.112 107.089,151.250 107.226 C 151.387 107.364,151.500 107.632,151.500 107.821 C 151.500 108.017,151.608 108.167,151.750 108.167 C 151.907 108.167,152.000 108.325,152.000 108.595 C 152.000 109.035,152.337 109.500,152.655 109.500 C 152.753 109.500,152.833 109.677,152.833 109.893 C 152.833 110.118,153.012 110.421,153.250 110.600 C 153.479 110.772,153.667 111.007,153.667 111.123 C 153.667 111.239,153.779 111.333,153.917 111.333 C 154.054 111.333,154.167 111.446,154.167 111.583 C 154.167 111.721,154.261 111.833,154.377 111.833 C 154.493 111.833,154.728 112.021,154.900 112.250 C 155.079 112.488,155.382 112.667,155.607 112.667 C 155.845 112.667,156.000 112.765,156.000 112.917 C 156.000 113.072,156.157 113.167,156.417 113.167 C 156.646 113.167,156.833 113.242,156.833 113.333 C 156.833 113.425,157.133 113.500,157.500 113.500 C 157.981 113.500,158.167 113.569,158.167 113.750 C 158.167 113.964,158.658 114.000,161.589 114.000 C 164.477 114.000,165.025 113.961,165.106 113.750 C 165.165 113.597,165.418 113.500,165.758 113.500 C 166.064 113.500,166.360 113.425,166.417 113.333 C 166.473 113.242,166.668 113.167,166.848 113.167 C 167.029 113.167,167.220 113.054,167.273 112.917 C 167.326 112.779,167.473 112.667,167.601 112.667 C 167.729 112.667,167.833 112.554,167.833 112.417 C 167.833 112.275,167.983 112.167,168.179 112.167 C 168.539 112.167,169.500 111.327,169.500 111.013 C 169.500 110.914,169.612 110.833,169.750 110.833 C 169.906 110.833,170.000 110.676,170.000 110.417 C 170.000 110.157,170.094 110.000,170.250 110.000 C 170.387 110.000,170.500 109.888,170.500 109.750 C 170.500 109.612,170.575 109.500,170.667 109.500 C 170.758 109.500,170.833 109.313,170.833 109.083 C 170.833 108.824,170.928 108.667,171.083 108.667 C 171.236 108.667,171.333 108.511,171.333 108.268 C 171.333 108.048,171.446 107.826,171.583 107.773 C 171.721 107.720,171.833 107.487,171.833 107.255 C 171.833 107.023,171.908 106.833,172.000 106.833 C 172.092 106.833,172.167 106.579,172.167 106.268 C 172.167 105.919,172.262 105.666,172.417 105.606 C 172.571 105.547,172.667 105.294,172.667 104.942 C 172.667 104.630,172.779 104.281,172.917 104.167 C 173.054 104.053,173.167 103.743,173.167 103.480 C 173.167 103.216,173.242 103.000,173.333 103.000 C 173.425 103.000,173.500 102.708,173.500 102.351 C 173.500 101.928,173.587 101.669,173.750 101.606 C 173.905 101.547,174.000 101.293,174.000 100.940 C 174.000 100.586,174.095 100.332,174.250 100.273 C 174.407 100.213,174.500 99.958,174.500 99.589 C 174.500 99.265,174.575 99.000,174.667 99.000 C 174.758 99.000,174.833 98.700,174.833 98.333 C 174.833 97.852,174.903 97.667,175.083 97.667 C 175.264 97.667,175.333 97.481,175.333 97.000 C 175.333 96.633,175.408 96.333,175.500 96.333 C 175.592 96.333,175.667 96.033,175.667 95.667 C 175.667 95.185,175.736 95.000,175.917 95.000 C 176.097 95.000,176.167 94.815,176.167 94.333 C 176.167 93.852,176.236 93.667,176.417 93.667 C 176.597 93.667,176.667 93.481,176.667 93.000 C 176.667 92.633,176.742 92.333,176.833 92.333 C 176.925 92.333,177.000 92.033,177.000 91.667 C 177.000 91.185,177.069 91.000,177.250 91.000 C 177.431 91.000,177.500 90.815,177.500 90.333 C 177.500 89.852,177.569 89.667,177.750 89.667 C 177.931 89.667,178.000 89.481,178.000 89.000 C 178.000 88.633,178.075 88.333,178.167 88.333 C 178.258 88.333,178.333 88.033,178.333 87.667 C 178.333 87.185,178.403 87.000,178.583 87.000 C 178.756 87.000,178.833 86.826,178.833 86.434 C 178.833 86.086,178.929 85.832,179.083 85.773 C 179.240 85.713,179.333 85.458,179.333 85.089 C 179.333 84.765,179.408 84.500,179.500 84.500 C 179.592 84.500,179.667 84.208,179.667 83.851 C 179.667 83.428,179.754 83.169,179.917 83.106 C 180.072 83.047,180.167 82.793,180.167 82.440 C 180.167 82.086,180.262 81.832,180.417 81.773 C 180.574 81.713,180.667 81.458,180.667 81.089 C 180.667 80.765,180.742 80.500,180.833 80.500 C 180.925 80.500,181.000 80.200,181.000 79.833 C 181.000 79.352,181.069 79.167,181.250 79.167 C 181.429 79.167,181.500 78.983,181.500 78.518 C 181.500 78.095,181.587 77.836,181.750 77.773 C 181.907 77.713,182.000 77.458,182.000 77.089 C 182.000 76.765,182.075 76.500,182.167 76.500 C 182.258 76.500,182.333 76.200,182.333 75.833 C 182.333 75.352,182.403 75.167,182.583 75.167 C 182.764 75.167,182.833 74.981,182.833 74.500 C 182.833 74.133,182.908 73.833,183.000 73.833 C 183.092 73.833,183.167 73.654,183.167 73.434 C 183.167 73.215,183.279 72.992,183.417 72.940 C 183.572 72.880,183.667 72.627,183.667 72.273 C 183.667 71.919,183.762 71.666,183.917 71.606 C 184.074 71.546,184.167 71.291,184.167 70.922 C 184.167 70.598,184.242 70.333,184.333 70.333 C 184.425 70.333,184.500 70.041,184.500 69.684 C 184.500 69.262,184.587 69.002,184.750 68.940 C 184.905 68.880,185.000 68.627,185.000 68.273 C 185.000 67.919,185.095 67.666,185.250 67.606 C 185.407 67.546,185.500 67.291,185.500 66.922 C 185.500 66.598,185.575 66.333,185.667 66.333 C 185.758 66.333,185.833 66.041,185.833 65.684 C 185.833 65.250,185.919 65.003,186.094 64.936 C 186.273 64.867,186.338 64.667,186.302 64.293 L 186.250 63.750 181.042 63.706 L 175.833 63.662 175.833 64.164 C 175.833 64.500,175.750 64.667,175.583 64.667 C 175.403 64.667,175.333 64.852,175.333 65.333 C 175.333 65.815,175.264 66.000,175.083 66.000 C 174.903 66.000,174.833 66.185,174.833 66.667 C 174.833 67.033,174.758 67.333,174.667 67.333 C 174.575 67.333,174.500 67.633,174.500 68.000 C 174.500 68.481,174.431 68.667,174.250 68.667 C 174.074 68.667,174.000 68.844,174.000 69.262 C 174.000 69.589,173.887 69.970,173.750 70.107 C 173.612 70.245,173.500 70.652,173.500 71.012 C 173.500 71.372,173.425 71.667,173.333 71.667 C 173.242 71.667,173.167 71.967,173.167 72.333 C 173.167 72.815,173.097 73.000,172.917 73.000 C 172.737 73.000,172.667 73.183,172.667 73.649 C 172.667 74.072,172.580 74.331,172.417 74.394 C 172.260 74.454,172.167 74.709,172.167 75.078 C 172.167 75.402,172.092 75.667,172.000 75.667 C 171.908 75.667,171.833 75.967,171.833 76.333 C 171.833 76.815,171.764 77.000,171.583 77.000 C 171.403 77.000,171.333 77.185,171.333 77.667 C 171.333 78.033,171.258 78.333,171.167 78.333 C 171.075 78.333,171.000 78.633,171.000 79.000 C 171.000 79.481,170.931 79.667,170.750 79.667 C 170.561 79.667,170.500 79.870,170.500 80.500 C 170.500 81.130,170.439 81.333,170.250 81.333 C 170.069 81.333,170.000 81.519,170.000 82.000 C 170.000 82.367,169.925 82.667,169.833 82.667 C 169.742 82.667,169.667 82.967,169.667 83.333 C 169.667 83.815,169.597 84.000,169.417 84.000 C 169.237 84.000,169.167 84.183,169.167 84.649 C 169.167 85.072,169.080 85.331,168.917 85.394 C 168.760 85.454,168.667 85.709,168.667 86.078 C 168.667 86.402,168.592 86.667,168.500 86.667 C 168.408 86.667,168.333 86.967,168.333 87.333 C 168.333 87.815,168.264 88.000,168.083 88.000 C 167.895 88.000,167.833 88.202,167.833 88.816 C 167.833 89.387,167.758 89.660,167.583 89.727 C 167.426 89.787,167.333 90.042,167.333 90.411 C 167.333 90.735,167.258 91.000,167.167 91.000 C 167.075 91.000,167.000 91.292,167.000 91.649 C 167.000 92.072,166.913 92.331,166.750 92.394 C 166.595 92.453,166.500 92.707,166.500 93.060 C 166.500 93.414,166.405 93.668,166.250 93.727 C 166.093 93.787,166.000 94.042,166.000 94.411 C 166.000 94.735,165.925 95.000,165.833 95.000 C 165.742 95.000,165.667 95.292,165.667 95.649 C 165.667 96.072,165.580 96.331,165.417 96.394 C 165.240 96.461,165.167 96.736,165.167 97.328 C 165.167 97.962,165.106 98.167,164.917 98.167 C 164.736 98.167,164.667 98.352,164.667 98.833 C 164.667 99.200,164.592 99.500,164.500 99.500 C 164.408 99.500,164.333 99.800,164.333 100.167 C 164.333 100.648,164.264 100.833,164.083 100.833 C 163.903 100.833,163.833 101.019,163.833 101.500 C 163.833 101.867,163.758 102.167,163.667 102.167 C 163.575 102.167,163.500 102.432,163.500 102.755 C 163.500 103.125,163.407 103.380,163.250 103.440 C 163.112 103.492,163.000 103.675,163.000 103.845 C 163.000 104.270,162.090 105.167,161.659 105.167 C 161.205 105.167,160.333 104.295,160.333 103.841 C 160.333 103.648,160.221 103.446,160.083 103.394 C 159.929 103.334,159.833 103.081,159.833 102.732 C 159.833 102.421,159.758 102.167,159.667 102.167 C 159.575 102.167,159.500 101.902,159.500 101.578 C 159.500 101.209,159.407 100.954,159.250 100.894 C 159.087 100.831,159.000 100.572,159.000 100.149 C 159.000 99.683,158.929 99.500,158.750 99.500 C 158.569 99.500,158.500 99.315,158.500 98.833 C 158.500 98.467,158.425 98.167,158.333 98.167 C 158.242 98.167,158.167 97.881,158.167 97.532 C 158.167 97.183,158.057 96.751,157.922 96.574 C 157.787 96.396,157.675 96.004,157.672 95.703 C 157.669 95.375,157.567 95.118,157.417 95.060 C 157.254 94.998,157.167 94.738,157.167 94.316 C 157.167 93.959,157.092 93.667,157.000 93.667 C 156.908 93.667,156.833 93.402,156.833 93.078 C 156.833 92.709,156.740 92.454,156.583 92.394 C 156.408 92.326,156.333 92.053,156.333 91.482 C 156.333 90.868,156.271 90.667,156.083 90.667 C 155.903 90.667,155.833 90.481,155.833 90.000 C 155.833 89.633,155.758 89.333,155.667 89.333 C 155.575 89.333,155.500 89.033,155.500 88.667 C 155.500 88.185,155.431 88.000,155.250 88.000 C 155.069 88.000,155.000 87.815,155.000 87.333 C 155.000 86.852,154.931 86.667,154.750 86.667 C 154.561 86.667,154.500 86.463,154.500 85.833 C 154.500 85.375,154.425 85.000,154.333 85.000 C 154.242 85.000,154.167 84.735,154.167 84.411 C 154.167 84.042,154.074 83.787,153.917 83.727 C 153.754 83.664,153.667 83.405,153.667 82.982 C 153.667 82.625,153.592 82.333,153.500 82.333 C 153.408 82.333,153.333 82.033,153.333 81.667 C 153.333 81.185,153.264 81.000,153.083 81.000 C 152.903 81.000,152.833 80.815,152.833 80.333 C 152.833 79.852,152.764 79.667,152.583 79.667 C 152.395 79.667,152.333 79.464,152.333 78.843 C 152.333 78.390,152.258 77.973,152.167 77.917 C 152.075 77.860,152.000 77.553,152.000 77.235 C 152.000 76.874,151.906 76.620,151.750 76.560 C 151.587 76.498,151.500 76.238,151.500 75.816 C 151.500 75.350,151.429 75.167,151.250 75.167 C 151.069 75.167,151.000 74.981,151.000 74.500 C 151.000 74.133,150.925 73.833,150.833 73.833 C 150.742 73.833,150.667 73.539,150.667 73.179 C 150.667 72.818,150.554 72.411,150.417 72.274 C 150.279 72.136,150.167 71.756,150.167 71.429 C 150.167 71.011,150.092 70.833,149.917 70.833 C 149.736 70.833,149.667 70.648,149.667 70.167 C 149.667 69.800,149.592 69.500,149.500 69.500 C 149.408 69.500,149.333 69.200,149.333 68.833 C 149.333 68.352,149.264 68.167,149.083 68.167 C 148.903 68.167,148.833 67.981,148.833 67.500 C 148.833 67.019,148.764 66.833,148.583 66.833 C 148.394 66.833,148.333 66.630,148.333 66.000 C 148.333 65.542,148.263 65.167,148.176 65.167 C 148.090 65.167,147.996 64.848,147.968 64.458 L 147.917 63.750 141.375 63.706 L 134.833 63.663 134.833 67.665 M206.667 63.917 C 206.667 64.118,206.407 64.167,205.333 64.167 C 204.259 64.167,204.000 64.215,204.000 64.417 C 204.000 64.597,203.815 64.667,203.333 64.667 C 202.967 64.667,202.667 64.742,202.667 64.833 C 202.667 64.925,202.402 65.000,202.078 65.000 C 201.709 65.000,201.454 65.093,201.394 65.250 C 201.331 65.413,201.072 65.500,200.649 65.500 C 200.183 65.500,200.000 65.571,200.000 65.750 C 200.000 65.906,199.843 66.000,199.583 66.000 C 199.354 66.000,199.167 66.075,199.167 66.167 C 199.167 66.258,198.979 66.333,198.750 66.333 C 198.491 66.333,198.333 66.428,198.333 66.583 C 198.333 66.735,198.179 66.833,197.940 66.833 C 197.715 66.833,197.413 67.012,197.234 67.250 C 197.062 67.479,196.786 67.667,196.622 67.667 C 196.457 67.667,196.280 67.779,196.227 67.917 C 196.174 68.054,196.027 68.167,195.899 68.167 C 195.771 68.167,195.667 68.279,195.667 68.417 C 195.667 68.554,195.554 68.667,195.417 68.667 C 195.279 68.667,195.167 68.742,195.167 68.833 C 195.167 68.925,195.054 69.000,194.917 69.000 C 194.779 69.000,194.667 69.080,194.667 69.179 C 194.667 69.409,194.243 69.833,194.012 69.833 C 193.914 69.833,193.833 69.946,193.833 70.083 C 193.833 70.221,193.721 70.333,193.583 70.333 C 193.446 70.333,193.333 70.413,193.333 70.511 C 193.333 70.609,193.071 70.937,192.750 71.239 C 192.429 71.542,192.167 71.874,192.167 71.978 C 192.167 72.082,192.054 72.167,191.917 72.167 C 191.761 72.167,191.667 72.324,191.667 72.583 C 191.667 72.843,191.572 73.000,191.417 73.000 C 191.279 73.000,191.167 73.112,191.167 73.250 C 191.167 73.387,191.092 73.500,191.000 73.500 C 190.908 73.500,190.833 73.688,190.833 73.917 C 190.833 74.176,190.739 74.333,190.583 74.333 C 190.431 74.333,190.333 74.489,190.333 74.732 C 190.333 74.952,190.221 75.174,190.083 75.227 C 189.946 75.280,189.833 75.513,189.833 75.745 C 189.833 75.977,189.758 76.167,189.667 76.167 C 189.575 76.167,189.500 76.421,189.500 76.732 C 189.500 77.081,189.404 77.334,189.250 77.394 C 189.074 77.461,189.000 77.736,189.000 78.328 C 189.000 78.962,188.939 79.167,188.750 79.167 C 188.553 79.167,188.500 79.398,188.500 80.250 C 188.500 80.861,188.427 81.333,188.333 81.333 C 188.225 81.333,188.167 83.944,188.167 88.833 C 188.167 93.722,188.225 96.333,188.333 96.333 C 188.427 96.333,188.500 96.806,188.500 97.417 C 188.500 98.269,188.553 98.500,188.750 98.500 C 188.939 98.500,189.000 98.704,189.000 99.339 C 189.000 99.930,189.074 100.205,189.250 100.273 C 189.387 100.326,189.500 100.548,189.500 100.768 C 189.500 100.987,189.575 101.167,189.667 101.167 C 189.758 101.167,189.833 101.467,189.833 101.833 C 189.833 102.315,189.903 102.500,190.083 102.500 C 190.239 102.500,190.333 102.657,190.333 102.917 C 190.333 103.176,190.428 103.333,190.583 103.333 C 190.739 103.333,190.833 103.491,190.833 103.750 C 190.833 103.979,190.908 104.167,191.000 104.167 C 191.092 104.167,191.167 104.279,191.167 104.417 C 191.167 104.554,191.279 104.667,191.417 104.667 C 191.557 104.667,191.667 104.816,191.667 105.008 C 191.667 105.196,191.854 105.523,192.083 105.735 C 192.313 105.948,192.500 106.207,192.500 106.311 C 192.500 106.415,192.580 106.500,192.679 106.500 C 192.909 106.500,193.333 106.924,193.333 107.155 C 193.333 107.253,193.446 107.333,193.583 107.333 C 193.721 107.333,193.833 107.446,193.833 107.583 C 193.833 107.721,193.914 107.833,194.012 107.833 C 194.243 107.833,194.667 108.257,194.667 108.488 C 194.667 108.586,194.779 108.667,194.917 108.667 C 195.054 108.667,195.167 108.779,195.167 108.917 C 195.167 109.054,195.252 109.167,195.356 109.167 C 195.460 109.167,195.719 109.354,195.931 109.583 C 196.144 109.813,196.471 110.000,196.659 110.000 C 196.846 110.000,197.000 110.085,197.000 110.190 C 197.000 110.470,197.528 110.822,197.958 110.828 C 198.178 110.831,198.333 110.937,198.333 111.083 C 198.333 111.239,198.491 111.333,198.750 111.333 C 199.009 111.333,199.167 111.428,199.167 111.583 C 199.167 111.739,199.324 111.833,199.583 111.833 C 199.813 111.833,200.000 111.908,200.000 112.000 C 200.000 112.092,200.225 112.167,200.500 112.167 C 200.833 112.167,201.000 112.250,201.000 112.417 C 201.000 112.590,201.174 112.667,201.563 112.667 C 201.873 112.667,202.219 112.779,202.333 112.917 C 202.460 113.069,202.825 113.167,203.270 113.167 C 203.672 113.167,204.000 113.242,204.000 113.333 C 204.000 113.427,204.472 113.500,205.083 113.500 C 205.935 113.500,206.167 113.553,206.167 113.750 C 206.167 113.966,206.778 114.000,210.672 114.000 C 214.523 114.000,215.191 113.964,215.273 113.750 C 215.344 113.564,215.640 113.500,216.425 113.500 C 217.005 113.500,217.527 113.425,217.583 113.333 C 217.640 113.242,217.947 113.167,218.265 113.167 C 218.626 113.167,218.880 113.072,218.940 112.917 C 219.002 112.754,219.262 112.667,219.684 112.667 C 220.150 112.667,220.333 112.596,220.333 112.417 C 220.333 112.261,220.491 112.167,220.750 112.167 C 220.979 112.167,221.167 112.101,221.167 112.021 C 221.167 111.941,221.467 111.828,221.833 111.769 C 222.200 111.711,222.500 111.589,222.500 111.498 C 222.500 111.407,222.612 111.333,222.750 111.333 C 222.887 111.333,223.000 111.221,223.000 111.083 C 223.000 110.928,223.157 110.833,223.417 110.833 C 223.646 110.833,223.833 110.766,223.833 110.685 C 223.833 110.603,224.021 110.489,224.250 110.432 C 224.479 110.374,224.667 110.253,224.667 110.163 C 224.667 110.074,224.779 110.000,224.917 110.000 C 225.054 110.000,225.167 109.920,225.167 109.821 C 225.167 109.539,225.613 109.167,225.951 109.167 C 226.266 109.167,226.833 108.629,226.833 108.331 C 226.833 108.241,226.914 108.167,227.013 108.167 C 227.246 108.167,228.167 107.246,228.167 107.013 C 228.167 106.914,228.279 106.833,228.417 106.833 C 228.572 106.833,228.667 106.676,228.667 106.417 C 228.667 106.188,228.747 106.000,228.845 106.000 C 229.076 106.000,229.500 105.576,229.500 105.345 C 229.500 105.247,229.612 105.167,229.750 105.167 C 229.887 105.167,230.000 105.021,230.000 104.842 C 230.000 104.663,230.188 104.315,230.417 104.068 C 230.646 103.820,230.833 103.487,230.833 103.327 C 230.833 103.167,230.946 102.992,231.083 102.940 C 231.238 102.880,231.333 102.627,231.333 102.273 C 231.333 101.919,231.428 101.666,231.583 101.606 C 231.721 101.554,231.833 101.321,231.833 101.089 C 231.833 100.857,231.908 100.667,232.000 100.667 C 232.092 100.667,232.167 100.412,232.167 100.101 C 232.167 99.752,232.262 99.499,232.417 99.440 C 232.593 99.372,232.667 99.097,232.667 98.505 C 232.667 98.044,232.742 97.667,232.833 97.667 C 232.942 97.667,233.000 94.642,233.000 88.927 C 233.000 83.280,232.941 80.150,232.833 80.083 C 232.742 80.027,232.667 79.645,232.667 79.235 C 232.667 78.726,232.587 78.459,232.417 78.394 C 232.254 78.331,232.167 78.072,232.167 77.649 C 232.167 77.292,232.092 77.000,232.000 77.000 C 231.908 77.000,231.833 76.810,231.833 76.578 C 231.833 76.346,231.721 76.113,231.583 76.060 C 231.446 76.008,231.333 75.785,231.333 75.566 C 231.333 75.322,231.236 75.167,231.083 75.167 C 230.928 75.167,230.833 75.009,230.833 74.750 C 230.833 74.521,230.758 74.333,230.667 74.333 C 230.575 74.333,230.500 74.146,230.500 73.917 C 230.500 73.657,230.406 73.500,230.250 73.500 C 230.098 73.500,230.000 73.345,230.000 73.107 C 230.000 72.882,229.822 72.579,229.583 72.400 C 229.354 72.228,229.167 71.993,229.167 71.877 C 229.167 71.761,229.054 71.667,228.917 71.667 C 228.776 71.667,228.667 71.518,228.667 71.328 C 228.667 71.142,228.554 70.946,228.417 70.894 C 228.279 70.841,228.167 70.706,228.167 70.594 C 228.167 70.481,227.979 70.289,227.750 70.167 C 227.521 70.044,227.333 69.844,227.333 69.722 C 227.333 69.600,227.221 69.500,227.083 69.500 C 226.946 69.500,226.833 69.415,226.833 69.310 C 226.833 69.030,226.305 68.678,225.875 68.672 C 225.669 68.669,225.500 68.586,225.500 68.487 C 225.500 68.173,224.539 67.333,224.179 67.333 C 223.983 67.333,223.833 67.225,223.833 67.083 C 223.833 66.931,223.678 66.833,223.434 66.833 C 223.215 66.833,222.992 66.721,222.940 66.583 C 222.887 66.446,222.654 66.333,222.422 66.333 C 222.190 66.333,222.000 66.258,222.000 66.167 C 222.000 66.075,221.813 66.000,221.583 66.000 C 221.324 66.000,221.167 65.906,221.167 65.750 C 221.167 65.597,221.011 65.500,220.768 65.500 C 220.548 65.500,220.326 65.387,220.273 65.250 C 220.213 65.093,219.958 65.000,219.589 65.000 C 219.265 65.000,219.000 64.925,219.000 64.833 C 219.000 64.742,218.588 64.667,218.083 64.667 C 217.380 64.667,217.167 64.609,217.167 64.417 C 217.167 64.221,216.937 64.167,216.101 64.167 C 215.308 64.167,215.011 64.103,214.940 63.917 C 214.858 63.704,214.236 63.667,210.755 63.667 C 207.232 63.667,206.667 63.701,206.667 63.917 M212.833 72.750 C 212.833 72.939,213.037 73.000,213.667 73.000 C 214.125 73.000,214.500 73.075,214.500 73.167 C 214.500 73.258,214.800 73.333,215.167 73.333 C 215.648 73.333,215.833 73.403,215.833 73.583 C 215.833 73.750,216.000 73.833,216.333 73.833 C 216.667 73.833,216.833 73.917,216.833 74.083 C 216.833 74.221,216.946 74.333,217.083 74.333 C 217.221 74.333,217.333 74.408,217.333 74.500 C 217.333 74.592,217.521 74.667,217.750 74.667 C 218.009 74.667,218.167 74.761,218.167 74.917 C 218.167 75.054,218.242 75.167,218.333 75.167 C 218.425 75.167,218.500 75.279,218.500 75.417 C 218.500 75.554,218.612 75.667,218.750 75.667 C 218.887 75.667,219.000 75.742,219.000 75.833 C 219.000 75.925,219.112 76.000,219.250 76.000 C 219.387 76.000,219.500 76.081,219.500 76.179 C 219.500 76.413,220.421 77.333,220.654 77.333 C 220.753 77.333,220.833 77.558,220.833 77.833 C 220.833 78.108,220.908 78.333,221.000 78.333 C 221.092 78.333,221.167 78.486,221.167 78.672 C 221.167 78.858,221.279 79.054,221.417 79.106 C 221.554 79.159,221.667 79.382,221.667 79.601 C 221.667 79.821,221.742 80.000,221.833 80.000 C 221.925 80.000,222.000 80.220,222.000 80.488 C 222.000 80.757,222.112 81.089,222.250 81.226 C 222.400 81.376,222.500 81.784,222.500 82.243 C 222.500 82.771,222.578 83.040,222.750 83.106 C 222.966 83.189,223.000 83.993,223.000 88.934 C 223.000 93.919,222.967 94.667,222.750 94.667 C 222.564 94.667,222.499 94.868,222.495 95.458 C 222.492 95.894,222.379 96.396,222.245 96.574 C 222.110 96.751,222.000 97.070,222.000 97.282 C 222.000 97.494,221.925 97.667,221.833 97.667 C 221.742 97.667,221.667 97.884,221.667 98.149 C 221.667 98.424,221.559 98.672,221.417 98.727 C 221.279 98.780,221.167 98.975,221.167 99.161 C 221.167 99.348,221.092 99.500,221.000 99.500 C 220.908 99.500,220.833 99.688,220.833 99.917 C 220.833 100.176,220.739 100.333,220.583 100.333 C 220.446 100.333,220.333 100.446,220.333 100.583 C 220.333 100.721,220.253 100.833,220.155 100.833 C 219.924 100.833,219.500 101.257,219.500 101.488 C 219.500 101.586,219.387 101.667,219.250 101.667 C 219.112 101.667,219.000 101.779,219.000 101.917 C 219.000 102.054,218.920 102.167,218.821 102.167 C 218.591 102.167,218.167 102.591,218.167 102.821 C 218.167 102.920,217.979 103.000,217.750 103.000 C 217.521 103.000,217.333 103.075,217.333 103.167 C 217.333 103.258,217.221 103.333,217.083 103.333 C 216.946 103.333,216.833 103.446,216.833 103.583 C 216.833 103.740,216.675 103.833,216.411 103.833 C 216.179 103.833,215.946 103.946,215.894 104.083 C 215.835 104.236,215.582 104.333,215.242 104.333 C 214.936 104.333,214.640 104.408,214.583 104.500 C 214.527 104.592,214.190 104.667,213.835 104.667 C 213.481 104.667,213.078 104.779,212.940 104.917 C 212.574 105.283,208.414 105.283,208.273 104.917 C 208.207 104.745,207.939 104.667,207.422 104.667 C 207.007 104.667,206.667 104.592,206.667 104.500 C 206.667 104.408,206.367 104.333,206.000 104.333 C 205.519 104.333,205.333 104.264,205.333 104.083 C 205.333 103.917,205.167 103.833,204.833 103.833 C 204.558 103.833,204.333 103.753,204.333 103.655 C 204.333 103.361,203.881 103.000,203.512 103.000 C 203.316 103.000,203.167 102.892,203.167 102.750 C 203.167 102.612,203.054 102.500,202.917 102.500 C 202.779 102.500,202.667 102.425,202.667 102.333 C 202.667 102.242,202.554 102.167,202.417 102.167 C 202.279 102.167,202.167 102.086,202.167 101.987 C 202.167 101.754,201.246 100.833,201.013 100.833 C 200.914 100.833,200.831 100.665,200.828 100.458 C 200.822 100.028,200.470 99.500,200.190 99.500 C 200.085 99.500,200.000 99.275,200.000 99.000 C 200.000 98.667,199.917 98.500,199.750 98.500 C 199.575 98.500,199.500 98.324,199.500 97.917 C 199.500 97.596,199.425 97.333,199.333 97.333 C 199.242 97.333,199.167 97.033,199.167 96.667 C 199.167 96.185,199.097 96.000,198.917 96.000 C 198.713 96.000,198.667 95.722,198.667 94.495 C 198.667 93.311,198.613 92.969,198.417 92.894 C 198.204 92.812,198.167 92.201,198.167 88.816 C 198.167 85.387,198.201 84.833,198.417 84.833 C 198.620 84.833,198.667 84.558,198.667 83.351 C 198.667 82.187,198.720 81.848,198.917 81.773 C 199.072 81.713,199.167 81.459,199.167 81.098 C 199.167 80.780,199.242 80.473,199.333 80.417 C 199.425 80.360,199.500 80.056,199.500 79.740 C 199.500 79.341,199.576 79.167,199.750 79.167 C 199.887 79.167,200.000 79.021,200.000 78.842 C 200.000 78.663,200.188 78.315,200.417 78.068 C 200.646 77.820,200.833 77.479,200.833 77.309 C 200.833 77.139,200.946 77.000,201.083 77.000 C 201.221 77.000,201.333 76.928,201.333 76.839 C 201.333 76.621,202.279 75.667,202.494 75.667 C 202.589 75.667,202.667 75.554,202.667 75.417 C 202.667 75.279,202.779 75.167,202.917 75.167 C 203.054 75.167,203.167 75.054,203.167 74.917 C 203.167 74.775,203.316 74.667,203.512 74.667 C 203.881 74.667,204.333 74.306,204.333 74.012 C 204.333 73.914,204.633 73.833,205.000 73.833 C 205.481 73.833,205.667 73.764,205.667 73.583 C 205.667 73.417,205.833 73.333,206.167 73.333 C 206.442 73.333,206.667 73.258,206.667 73.167 C 206.667 73.075,207.042 73.000,207.500 73.000 C 208.130 73.000,208.333 72.939,208.333 72.750 C 208.333 72.540,208.694 72.500,210.583 72.500 C 212.472 72.500,212.833 72.540,212.833 72.750 M341.667 104.083 C 341.667 104.230,341.512 104.336,341.292 104.339 C 340.874 104.345,340.333 104.694,340.333 104.959 C 340.333 105.054,340.221 105.174,340.083 105.227 C 339.946 105.280,339.833 105.467,339.833 105.644 C 339.833 105.820,339.721 106.008,339.583 106.060 C 339.407 106.128,339.333 106.403,339.333 106.995 C 339.333 107.456,339.258 107.833,339.167 107.833 C 339.075 107.833,339.000 108.021,339.000 108.250 C 339.000 108.479,339.075 108.667,339.167 108.667 C 339.258 108.667,339.333 109.044,339.333 109.505 C 339.333 110.097,339.407 110.372,339.583 110.440 C 339.721 110.492,339.833 110.715,339.833 110.934 C 339.833 111.178,339.931 111.333,340.083 111.333 C 340.221 111.333,340.333 111.414,340.333 111.512 C 340.333 111.734,340.754 112.167,340.970 112.167 C 341.059 112.167,341.174 112.279,341.227 112.417 C 341.286 112.572,341.540 112.667,341.894 112.667 C 342.247 112.667,342.501 112.762,342.560 112.917 C 342.633 113.106,342.941 113.167,343.833 113.167 C 344.726 113.167,345.034 113.106,345.106 112.917 C 345.164 112.765,345.416 112.667,345.744 112.667 C 346.128 112.667,346.378 112.545,346.600 112.250 C 346.772 112.021,347.007 111.833,347.123 111.833 C 347.239 111.833,347.333 111.721,347.333 111.583 C 347.333 111.446,347.408 111.333,347.500 111.333 C 347.592 111.333,347.667 111.221,347.667 111.083 C 347.667 110.946,347.779 110.833,347.917 110.833 C 348.097 110.833,348.167 110.648,348.167 110.167 C 348.167 109.685,348.236 109.500,348.417 109.500 C 348.615 109.500,348.667 109.259,348.667 108.328 C 348.667 107.440,348.606 107.133,348.417 107.060 C 348.274 107.006,348.167 106.757,348.167 106.482 C 348.167 106.165,348.081 106.000,347.917 106.000 C 347.775 106.000,347.667 105.850,347.667 105.654 C 347.667 105.206,346.794 104.333,346.346 104.333 C 346.150 104.333,346.000 104.225,346.000 104.083 C 346.000 103.874,345.648 103.833,343.833 103.833 C 342.019 103.833,341.667 103.874,341.667 104.083 M344.667 105.321 C 344.667 105.406,344.798 105.510,344.958 105.552 C 345.119 105.594,344.671 105.637,343.964 105.647 C 342.884 105.664,342.693 105.627,342.773 105.417 C 342.881 105.136,344.667 105.046,344.667 105.321 M342.000 108.250 C 342.000 110.139,341.960 110.500,341.750 110.500 C 341.613 110.500,341.500 110.388,341.500 110.250 C 341.500 110.112,341.425 110.000,341.333 110.000 C 341.242 110.000,341.167 109.813,341.167 109.583 C 341.167 109.324,341.072 109.167,340.917 109.167 C 340.725 109.167,340.667 108.954,340.667 108.250 C 340.667 107.546,340.725 107.333,340.917 107.333 C 341.072 107.333,341.167 107.176,341.167 106.917 C 341.167 106.688,341.242 106.500,341.333 106.500 C 341.425 106.500,341.500 106.388,341.500 106.250 C 341.500 106.112,341.613 106.000,341.750 106.000 C 341.960 106.000,342.000 106.361,342.000 108.250 M346.500 106.917 C 346.500 107.146,346.575 107.333,346.667 107.333 C 346.758 107.333,346.833 107.746,346.833 108.250 C 346.833 108.754,346.758 109.167,346.667 109.167 C 346.575 109.167,346.500 109.354,346.500 109.583 C 346.500 109.843,346.406 110.000,346.250 110.000 C 346.113 110.000,346.000 109.925,346.000 109.833 C 346.000 109.742,345.887 109.667,345.750 109.667 C 345.565 109.667,345.500 109.472,345.500 108.917 C 345.500 108.361,345.565 108.167,345.750 108.167 C 345.939 108.167,346.000 107.963,346.000 107.333 C 346.000 106.704,346.061 106.500,346.250 106.500 C 346.406 106.500,346.500 106.657,346.500 106.917 M344.203 107.125 C 344.325 107.594,344.168 107.833,343.736 107.833 C 343.400 107.833,343.333 107.751,343.333 107.333 C 343.333 106.754,344.062 106.580,344.203 107.125 M343.929 109.405 C 344.060 109.536,344.167 109.782,344.167 109.951 C 344.167 110.121,344.315 110.386,344.497 110.542 C 345.055 111.020,344.752 111.333,343.732 111.333 C 343.044 111.333,342.833 111.275,342.833 111.083 C 342.833 110.946,342.946 110.833,343.083 110.833 C 343.272 110.833,343.333 110.630,343.333 110.000 C 343.333 109.142,343.500 108.976,343.929 109.405 " stroke="none" fill="#04b4a4" fill-rule="evenodd"></path><path id="path1" d="" stroke="none" fill="#08b4a4" fill-rule="evenodd"></path><path id="path2" d="" stroke="none" fill="#08b4a4" fill-rule="evenodd"></path><path id="path3" d="" stroke="none" fill="#08b4a4" fill-rule="evenodd"></path><path id="path4" d="" stroke="none" fill="#08b4a4" fill-rule="evenodd"></path><path id="path5" d="" stroke="none" fill="#08b4a4" fill-rule="evenodd"></path><path id="path6" d="" stroke="none" fill="#08b4a4" fill-rule="evenodd"></path><path id="path7" d="" stroke="none" fill="#08b4a4" fill-rule="evenodd"></path><path id="path8" d="" stroke="none" fill="#08b4a4" fill-rule="evenodd"></path></g></svg>